<?xml version="1.0" encoding="UTF-8"?> <svg xmlns="http://www.w3.org/2000/svg" width="345" height="30" viewBox="0 0 345 30" fill="none"><g clip-path="url(#clip0_2223_4660)"><path d="M13.1254 11.5146C13.1254 13.8147 11.8159 16.358 9.31676 16.358H5.60805V7.37025H9.31676C9.84225 7.36577 10.3629 7.47214 10.8457 7.68261C11.3284 7.89309 11.7627 8.20305 12.1209 8.59281C12.4791 8.98257 12.7533 9.4436 12.9263 9.9466C13.0992 10.4496 13.167 10.9836 13.1254 11.5146ZM9.79659 1.94922H0V29.1253H5.60805V21.3839H9.82658C14.8848 21.3839 18.6935 17.0977 18.6935 11.4031C18.6935 5.92127 14.9548 1.94922 9.79659 1.94922Z" fill="#212529"></path><path d="M65.6372 11.5146C65.6372 13.8147 64.3276 16.358 61.8285 16.358H58.1298V7.37025H61.8285C62.354 7.36577 62.8746 7.47214 63.3574 7.68261C63.8401 7.89309 64.2744 8.20305 64.6326 8.59281C64.9908 8.98257 65.2651 9.4436 65.438 9.9466C65.611 10.4496 65.6788 10.9836 65.6372 11.5146ZM62.3083 1.94922H52.5217V29.1253H58.1298V21.3839H62.3483C67.4065 21.3839 71.2152 17.0977 71.2152 11.4031C71.2152 5.92127 67.4665 1.94922 62.3083 1.94922Z" fill="#212529"></path><path d="M35.0378 7.11624C37.1929 7.19521 39.233 8.12157 40.7258 9.69904C42.2186 11.2765 43.0468 13.3811 43.035 15.567C43.035 17.7169 42.1925 19.7787 40.6927 21.2989C39.1929 22.8191 37.1588 23.6732 35.0378 23.6732C32.9168 23.6732 30.8827 22.8191 29.3829 21.2989C27.8832 19.7787 27.0406 17.7169 27.0406 15.567C26.9977 13.372 27.8157 11.2495 29.315 9.66514C30.8143 8.08081 32.8725 7.16412 35.0378 7.11624ZM35.0378 1.56348C33.236 1.57273 31.4538 1.94281 29.7935 2.65245C28.1333 3.36209 26.6278 4.39731 25.3635 5.6986C24.0992 6.9999 23.1011 8.54162 22.4265 10.2352C21.7519 11.9287 21.4141 13.7407 21.4325 15.567C21.3832 17.4115 21.6991 19.2473 22.3614 20.966C23.0237 22.6847 24.0191 24.2514 25.2887 25.5737C26.5583 26.896 28.0765 27.947 29.7535 28.6646C31.4306 29.3823 33.2325 29.752 35.0528 29.752C36.8732 29.752 38.6751 29.3823 40.3521 28.6646C42.0291 27.947 43.5473 26.896 44.8169 25.5737C46.0866 24.2514 47.0819 22.6847 47.7442 20.966C48.4065 19.2473 48.7224 17.4115 48.6731 15.567C48.6889 13.7389 48.3483 11.9256 47.6709 10.2313C46.9935 8.53697 45.9926 6.99497 44.7256 5.69381C43.4587 4.39266 41.9507 3.35798 40.2882 2.64917C38.6256 1.94037 36.8414 1.57141 35.0378 1.56348Z" fill="#212529"></path><path d="M90.4386 1.94922V18.6582C90.4386 20.0019 89.912 21.2905 88.9746 22.2406C88.0373 23.1908 86.7659 23.7245 85.4403 23.7245C84.1147 23.7245 82.8434 23.1908 81.906 22.2406C80.9686 21.2905 80.4421 20.0019 80.4421 18.6582V1.94922H74.6641V18.7392C74.7493 21.572 75.9194 24.2598 77.9263 26.233C79.9333 28.2062 82.6194 29.3097 85.4153 29.3097C88.2113 29.3097 90.8974 28.2062 92.9043 26.233C94.9113 24.2598 96.0814 21.572 96.1666 18.7392V1.94922H90.4386Z" fill="#212529"></path><path d="M106.313 23.9576V1.94922H100.705V29.1253H116.16V23.9576H106.313Z" fill="#212529"></path><path d="M134.533 20.6748H127.816L131.134 12.6598L134.533 20.6748ZM131.184 1.02734L118.189 29.1255H124.327L125.856 25.3561H136.423L138.012 29.1255H144.26L131.184 1.02734Z" fill="#212529"></path><path d="M155.946 15.932H152.247V7.36977H155.946C156.459 7.341 156.973 7.42356 157.453 7.61194C157.933 7.80032 158.367 8.0902 158.727 8.46225C159.088 8.83429 159.366 9.27995 159.543 9.76951C159.72 10.2591 159.792 10.7813 159.754 11.3013C159.754 13.6014 158.445 15.932 155.946 15.932ZM160.354 19.9851C161.922 19.1362 163.221 17.8574 164.105 16.2949C164.989 14.7323 165.421 12.9491 165.352 11.1493C165.352 5.66746 161.604 1.9082 156.446 1.9082H146.659V29.1248H152.267V21.0186H155.496L159.854 29.1755H165.852L160.354 19.9851Z" fill="#212529"></path><path d="M238.077 1.43262H232.429V28.6087H238.077V1.43262Z" fill="#212529"></path><path d="M261.919 6.60033V1.43262H243.255V28.6087H261.919V23.441H248.863V17.4221H259.68V12.2139H248.863V6.60033H261.919Z" fill="#212529"></path><path d="M283.751 1.43222V16.1957L266.597 0.5V28.6083H272.175L272.035 13.2876L289.219 29.5L289.359 1.43222H283.751Z" fill="#212529"></path><path d="M339.302 6.60033V1.43262H320.628V28.6087H339.302V23.441H326.237V17.4221H337.063V12.2139H326.237V6.60033H339.302Z" fill="#212529"></path><path d="M219.414 23.6124C214.765 23.6124 211.327 20.4307 211.327 15.0198C211.327 10.1257 214.755 6.41706 219.324 6.41706C221.479 6.44432 223.535 7.33715 225.042 8.89959L228.141 4.49184C225.68 2.21831 222.453 0.988752 219.124 1.05682C217.283 1.00656 215.451 1.33068 213.736 2.01004C212.02 2.68939 210.457 3.71022 209.137 5.01224C207.818 6.31427 206.769 7.87109 206.053 9.59079C205.336 11.3105 204.967 13.1582 204.967 15.0249C204.967 16.8915 205.336 18.7392 206.053 20.4589C206.769 22.1786 207.818 23.7354 209.137 25.0375C210.457 26.3395 212.02 27.3603 213.736 28.0397C215.451 28.719 217.283 29.0431 219.124 28.9929C220.898 28.9739 222.651 28.5947 224.279 27.8777C225.907 27.1607 227.376 26.1204 228.6 24.8182L225.602 20.6435C224.824 21.531 223.878 22.2505 222.82 22.7589C221.762 23.2673 220.614 23.5541 219.444 23.6022" fill="#212529"></path><path d="M307.313 23.6124C302.675 23.6124 299.226 20.4307 299.226 15.0198C299.226 10.1257 302.655 6.41706 307.273 6.41706C308.34 6.42946 309.395 6.65511 310.376 7.0811C311.357 7.50708 312.246 8.12504 312.991 8.89959L316.09 4.49184C313.617 2.2061 310.369 0.975656 307.023 1.05682C305.182 1.00656 303.35 1.33068 301.635 2.01004C299.92 2.68939 298.356 3.71022 297.037 5.01224C295.717 6.31427 294.668 7.87109 293.952 9.59079C293.236 11.3105 292.867 13.1582 292.867 15.0249C292.867 16.8915 293.236 18.7392 293.952 20.4589C294.668 22.1786 295.717 23.7354 297.037 25.0375C298.356 26.3395 299.92 27.3603 301.635 28.0397C303.35 28.719 305.182 29.0431 307.023 28.9929C308.799 28.973 310.553 28.5934 312.182 27.8765C313.812 27.1596 315.283 26.1197 316.51 24.8182L313.511 20.6435C312.731 21.5304 311.783 22.2494 310.723 22.7577C309.664 23.2659 308.514 23.5532 307.343 23.6022" fill="#212529"></path><path d="M195.222 12.2443C192.313 11.0283 191.014 9.91373 191.064 8.38368C191.064 7.28934 192.063 6.04301 194.232 6.04301C196.466 6.09236 198.596 7.01019 200.18 8.6066C201.01 7.4008 202.3 5.56677 203.019 4.55349C200.765 2.30347 197.726 1.04703 194.562 1.05768C188.564 1.05768 185.675 5.00947 185.565 8.68766C185.396 13.6527 189.444 15.9225 192.503 17.1992C195.562 18.4759 197.041 19.7324 196.981 21.3536C196.922 22.9749 195.662 23.8666 193.763 23.8666C191.373 23.8666 189.434 22.8533 187.285 20.9787C186.645 22.0427 185.416 24.0185 184.686 25.2142C185.842 26.4605 187.246 27.4424 188.807 28.0942C190.367 28.7459 192.046 29.0526 193.733 28.9937C199.541 28.9937 202.819 24.9406 202.949 21.1307C203.119 16.1758 199.141 13.8655 195.242 12.2443" fill="#212529"></path></g><defs><clipPath id="clip0_2223_4660"><rect width="345" height="29" fill="white" transform="translate(0 0.5)"></rect></clipPath></defs></svg> 