<?xml version="1.0" encoding="UTF-8"?>
<svg xmlns="http://www.w3.org/2000/svg" xmlns:xlink="http://www.w3.org/1999/xlink" width="907.5" height="181.297" viewBox="0 0 907.5 181.297">
  <defs>
    <clipPath id="clip-path">
      <rect id="Rectangle_51" data-name="Rectangle 51" width="907.5" height="181.297" fill="none"></rect>
    </clipPath>
  </defs>
  <g id="Logo" transform="translate(0 0)">
    <g id="Groupe_135" data-name="Groupe 135" transform="translate(0 0)" clip-path="url(#clip-path)">
      <path id="Tracé_21" data-name="Tracé 21" d="M810.824,114.388c0-20.416,7.133-40.835,30.749-40.835,23.863,0,31,20.419,31,40.835,0,20.171-7.133,40.59-31,40.59-23.616,0-30.749-20.419-30.749-40.59m-34.93,0c0,40.344,25.828,66.909,65.678,66.909,40.1,0,65.927-26.566,65.927-66.909,0-40.59-25.83-67.156-65.927-67.156-39.85,0-65.678,26.566-65.678,67.156m-87.371,63.466h34.931V120.538c0-22.385,8.855-40.835,34.438-40.835a63.635,63.635,0,0,1,12.547,1.231V48.463a26,26,0,0,0-7.624-1.231c-16.976,0-34.194,11.071-40.59,27.061h-.491V50.675H688.524ZM576.109,100.614c.491-9.84,6.886-27.061,29.026-27.061,16.973,0,24.6,9.347,27.8,27.061Zm91.756,22.138c2.457-39.111-18.45-75.52-61.748-75.52-38.619,0-64.94,29.026-64.94,67.156,0,39.357,24.845,66.909,64.94,66.909,28.781,0,49.692-12.792,59.532-42.8H634.9c-2.212,7.871-13.528,16.481-27.549,16.481-19.433,0-30.259-10.086-31.242-32.226ZM648.432,0H609.811L586.193,34.932h24.356ZM325.443,177.854h34.932v-73.8c0-24.845,16.73-29.273,23.616-29.273,22.14,0,21.154,16.973,21.154,31.733v71.337h34.931V107.008c0-15.99,3.69-32.225,23.371-32.225,19.924,0,21.4,14.021,21.4,30.993v72.077h34.93V92.739c0-32.962-19.433-45.507-46.49-45.507-17.712,0-31,10.085-38.375,21.155-6.89-15.252-21.157-21.155-37.147-21.155C381.286,47.232,368,54.86,358.9,67.9h-.491V50.675H325.443ZM297.9,50.675H262.965v66.665c0,25.83-8.119,36.406-27.057,36.406-16.238,0-22.387-10.331-22.387-31.238V50.675H178.59V128.9c0,31.488,9.348,52.4,46.492,52.4,14.761,0,30.013-6.886,38.866-21.155h.74v17.712H297.9ZM0,177.854H36.161V60.27h.491l73.06,117.584h38.621V2.216H112.172V120.046h-.491L38.375,2.216H0Z" transform="translate(0 0)" fill="#101010"></path>
    </g>
  </g>
</svg>
