<svg width="79" height="40" viewBox="0 0 79 40" fill="none" xmlns="http://www.w3.org/2000/svg">
<path d="M15.2753 15.64V17.33H11.3753V19.475H14.4953V21.165H11.3753V25H9.68531V15.64H15.2753ZM23.0702 15.64V17.33H19.1702V19.475H22.2902V21.165H19.1702V23.31H23.0702V25H17.4802V15.64H23.0702ZM28.6292 15.64L30.6052 23.245V25H28.9152V23.7L28.8242 23.375H26.7962L26.7052 23.7V25H25.0152V23.245L27.0042 15.64H28.6292ZM27.2382 21.685H28.3822L27.8622 19.683H27.7582L27.2382 21.685ZM38.4001 15.64V17.33H36.4501V25H34.7601V17.33H32.8101V15.64H38.4001ZM46.195 15.64V23.7L44.895 25H41.905L40.605 23.7V15.64H42.295V23.31H44.505V15.64H46.195ZM52.6639 15.64L53.9639 16.94V20.268L52.8329 21.399H52.3129L53.8339 23.739V25H52.1439V24.077L50.4019 21.399H50.0639V25H48.3739V15.64H52.6639ZM52.2739 17.343L50.0639 17.33V19.709H52.2739V17.343ZM62.0448 15.64V17.33H58.1448V19.475H61.2648V21.165H58.1448V23.31H62.0448V25H56.4548V15.64H62.0448ZM68.2798 15.64L69.5798 16.94V23.7L68.2798 25H63.9898V15.64H68.2798ZM67.8898 17.343H65.6798V23.31H67.8898V17.343Z" fill="#D00000"/>
</svg>
