<svg id="Layer_1" data-name="Layer 1" xmlns="http://www.w3.org/2000/svg" viewBox="0 0 370.89 262.25"><defs><style>.cls-1{fill:#bf9b30;stroke-width:0}</style></defs><g opacity=".75"><path id="fullLogo" class="cls-1" d="M20.83 220.11c6.83 2.39 13.03 5.37 17.39 9.07 2.39-2.56 4.69-4.69 7.5-6.02-7.1-4.29-17.24-5.44-24.89-3.05zm192.81-103.44c-1.49 0-2.82-.09-3.96-.5.24 5.02 2.63 7.91 6.84 10.54 0-4.36.74-7.91 3.37-11.44-2.63 1.14-4.29 1.4-6.25 1.4zM98.39 15.77c-3.53.66-4.45 4.62-2.56 8.24 1.09-.5 2.39-.99 4.05-1.49 1.49-.4 2.89-.5 4.03-.66.16-3.96-2.4-6.75-5.52-6.09zM45.56 86.74v-4.62l-2.07.42c-5.94.98-6.43-2.22-9.63-1.65-4.79.74.31 23.49 6.01 22.17 3.37-.57.9-4.36 6.84-5.6l4.03-.82-5.18-9.9zm-17.48-1.16c-4.21 1.73-8.08 5.28-6.94 9.4 0 5.45 6.94 7.74 10.8 7.51-3.29-4.05-5.02-11.13-3.86-16.91zm-7.25 134.53c6.83 2.39 13.03 5.37 17.39 9.07 2.39-2.56 4.69-4.69 7.5-6.02-7.1-4.29-17.24-5.44-24.89-3.05zM45.56 86.74v-4.62l-2.07.42c-5.94.98-6.43-2.22-9.63-1.65-4.79.74.31 23.49 6.01 22.17 3.37-.57.9-4.36 6.84-5.6l4.03-.82-5.18-9.9zm52.83-70.97c-3.53.66-4.45 4.62-2.56 8.24 1.09-.5 2.39-.99 4.05-1.49 1.49-.4 2.89-.5 4.03-.66.16-3.96-2.4-6.75-5.52-6.09zm115.25 100.9c-1.49 0-2.82-.09-3.96-.5.24 5.02 2.63 7.91 6.84 10.54 0-4.36.74-7.91 3.37-11.44-2.63 1.14-4.29 1.4-6.25 1.4zM28.08 85.58c-4.21 1.73-8.08 5.28-6.94 9.4 0 5.45 6.94 7.74 10.8 7.51-3.29-4.05-5.02-11.13-3.86-16.91zm0 0c-4.21 1.73-8.08 5.28-6.94 9.4 0 5.45 6.94 7.74 10.8 7.51-3.29-4.05-5.02-11.13-3.86-16.91zm-7.25 134.53c6.83 2.39 13.03 5.37 17.39 9.07 2.39-2.56 4.69-4.69 7.5-6.02-7.1-4.29-17.24-5.44-24.89-3.05zM45.56 86.74v-4.62l-2.07.42c-5.94.98-6.43-2.22-9.63-1.65-4.79.74.31 23.49 6.01 22.17 3.37-.57.9-4.36 6.84-5.6l4.03-.82-5.18-9.9zm52.83-70.97c-3.53.66-4.45 4.62-2.56 8.24 1.09-.5 2.39-.99 4.05-1.49 1.49-.4 2.89-.5 4.03-.66.16-3.96-2.4-6.75-5.52-6.09zm115.25 100.9c-1.49 0-2.82-.09-3.96-.5.24 5.02 2.63 7.91 6.84 10.54 0-4.36.74-7.91 3.37-11.44-2.63 1.14-4.29 1.4-6.25 1.4z"/><path class="cls-1" d="M125.93 133.06c-3.46.83-6.11-2.13-5.69-5.92 1.14 0 2.56-.26 3.96-.59 1.63-.41 2.88-.65 3.95-1.14 1.73 3.2.99 7.01-2.22 7.65zm97.58-93.47l-7.65 11.3-89.93 18.54c-1.4-3.05-3.13-6.11-5.03-8.5l102.61-21.34zm-10.87 17.97c0 .57.08 1.16.17 1.64-2.89 1.99-5.12 4.21-7.91 8L126 83.69c.42-3.13 1.08-6.68.83-10.14l86.31-18.38c-.33.9-.5 1.64-.5 2.39zm-89.36 65.46c-5.1 1.3-7.09.4-7.91-2.56-.57-2.39 1.73-6.51-1.73-19.96l-2.14-6.18c1.31-5.59 2.06-12.6 2.63-20.94-6.25-1.32-10.7-4.02-13.68-8.24 2.98-1.4 4.12-3.46 3.14-7.58l-1.32-5.28C98.48 37.27 95.66 34.64 95 31.92c-.64-2.13.26-5.28 5.71-6.51 5.68-1.4 7.91 0 8.48 3.38.49 2.63-1.07 6.09 1.32 17.15 3.79 17.88 9.14 17.88 11.2 26.45 2.16 8.9-2.63 10.39 1.57 28.86 2.65 10.97 5.86 13.36 6.36 15.92.57 3.29-.5 4.36-6.36 5.85zM64.67 98.44c-2.3 1.99-7.08 2.56-9.38-2.06l-5.54-11.61.26-9.16c.07-4.45 2.63-8.24 6.91-7.84-.66 1.25-.82 2.32-.82 2.98l-.48 12.77 5.76 12.05c.58 1.07 1.23 2.13 3.29 2.87z"/><path class="cls-1" d="M76.06 96.3c-2.32 3.22-8.17 4.62-10.8-1.32L59.9 82.54l.08-13.11c0-5.52 5.18-6.75 8-6.35-.99 1.33-1.25 2.3-1.25 3.79l-.08 13.93 6.44 13.11c.57 1.33 1.97 2.39 2.97 2.39z"/><path class="cls-1" d="M85.46 91.85c-1.9 1.33-2.98 2.89-3.15 4.2-2.63.25-4.76-.81-5.76-3.13l-5.77-13.1V66.71c0-7.84 8.07-7.91 10.39-6.09-1.99.9-3.05 2.54-3.05 4.28l-.26 13.51 7.6 13.44z"/><path class="cls-1" d="M93.6 82.78l-.73 2.47c-2.06 1.25-3.06 1.89-4.78 3.81L81.98 77.5l.66-12.6c.26-5.53 7.43-7.17 10.23-3.97-5.61 2.98-9.64 14.28.73 21.85z"/><path class="cls-1" d="M109.19 75.78c-1.31 18.37-4.62 28.03-11.87 34.87-7.74.9-17.07 3.3-23.66 6.68-5.77-1.42-9.89-5.44-13.76-13.11 2.3.09 4.93-.67 6.52-2.14 3.29 1.97 7.74 1.14 9.87-.99 1.16.73 2.65 1.06 4.38 1.06.24 2.16 1.23 4.53 3.46 7.01-.24-13.85 5.35-16.98 13.02-21.19l1.99-7.91c-7.26-1.56-9.16-11.04-4.21-15.25 2.96 5.28 7.41 8.83 14.26 10.97zm-7.82 42.86c-7.67.09-20.37 3.79-27.14 8l-.99-5.45c6.2-4.02 19.56-7.74 26.8-7.67l1.33 5.12zm16.22 42.45c-7.34 10.56-14.09 13.27-32.39 13.19l-8.65-45.18c6.51-3.29 16.56-5.85 23.99-6.42l17.05 38.41z"/><path class="cls-1" d="M131.94 172.63c-11.7 10.39-15.75 21.26-18.3 42.79l-30.25-4.86-.25-32.16c21.76.17 29.67-2.72 38.24-15.17l3.72 6.44 6.84 2.96z"/><path class="cls-1" d="M169.85 184.68c-3.45 7.98-3.29 17.31-7.65 22-6.84 8.07-8.74 15.32-10.72 23.16l-33.13-15.91c2.13-18.14 5.68-28.11 15.08-37.09l36.42 7.84z"/><path class="cls-1" d="M315.93 85.67c0 1.23-.16 2.56-.33 4.03-1.4-4.45-5.77-4.62-9.4-.16l-3.95 4.7c-3.55 4.29-9.57 6.68-14.85 4.2 3.55 5.2 10.89 4.28 15.25.92l3.3-2.39c5.53-4.29 9.32 0 8.73 3.79l-.9 6.75c-.66-3.2-4.19-3.87-9.14-1.64l-4.38 1.97c-6.75 2.89-13.43 2.22-15.82-3.05.24 7.1 6.51 9.98 14.02 8.09l4.12-1.09c7.41-1.89 10.54 1.09 9.14 7.77l-.9 4.69c-.42-3.72-4.62-4.29-11.06-3.46l-5.59.66c-4.87.48-13.19 1.07-14.75-6.27-.09 8.66 5.26 12.53 13.67 12.12l5.61-.26c7.74-.4 11.29 3.15 10.39 10.31l-1.49 11.12c-.5-7.98-5.68-9.14-12.53-9.8l-5.52-.66c-6.84-.66-13.52-3.13-14.84-9.97-.66 10.96 7.1 15.25 14.02 16.31l5.44.83c8.24 1.16 12.44 7.34 11.2 17.9l-1.06 9.38c-2.39-5.42-6.77-9.23-14.26-12.03l-4.71-1.73c-6.91-2.55-13.76-4.85-14.92-16.74-2.13 14.19 5.52 20.13 12.53 23.59l5.54 2.63c8.81 4.28 14.92 11.05 13.17 24.57-.64 3.87-1.56 8.91-3.53 12.94.24-9.48-6.77-14.43-14.43-19.61l-4.45-3.15c-7.34-5.02-14.75-10.3-13.68-21.1-3.72 10.14-2.23 16.08 8.24 25.81l5.52 4.69c10.06 8 16.74 17.07 9.64 28.53-5.03 6.59-9.07 9.81-13.36 11.94 2.32-12.44-4.03-19.2-8.24-26.95l-3.79-6.84c-5.52-3.87-10.04-9.81-8.57-18.05-3.7 7.08-4.2 13.19.09 19.54l4.95 7.08c12.76 18.14 6.91 28.77-1.42 30.43-4.69.9-8.98.66-18.95-.26 7.58-6.84 6.18-14.66 3.96-23.16l-1.56-5.85c-1.49-5.61-2.4-10.63-.83-14.68-3.63 4.62-6.11 6.51-5.45 16l1 11.54c.66 9.8-6.11 15.25-13.03 14.25-4.54-.73-7.17-1.14-11.86-1.73 7.58-3.21 6.91-10.13 7.65-17.47l.59-5.45c.33-4.28.97-8.64 4.19-10.87-6.58 2.8-8.48 4.53-10.21 10.63l-1.58 5.45c-2.54 8.9-5.26 17.38-17.95 17.05-2.49 0-5.95 0-9.57.17 7.17-3.79 9.24-10.97 11.2-18.21l1.66-5.61c1.47-5.36 3.62-8.82 7.34-10.05-6.68 1.14-10.96 4.29-13.52 9.88l-2.49 5.61c-3.12 7.01-7.17 14.52-20.67 20.86-7.18 3.37-13.28 4.95-18.4 8.57 7.1-13.61 4.88-22.84 15.34-34.38 7.68-8.9 19.45-16.81 24.4-17.55-2.8-.99-9.81-.66-18.71 4.36 2.89-8.97 5.28-21.59 15.01-24.65 6.92 7.77 18.21 11.56 31.81 11.56 27.2 0 42.53-21.27 42.53-55.25 0-8.64-1.57-16.55-6.02-26.05 4.95 7.77 7.1 9.24 11.3 9.24 6.18 0 12.12-9.47 16-22.76l3.04-10.37c-2.73 2.3-5.52 2.8-11.54 2.22 18.54-2.96 13.26-23.74-3.95-29.17-.43 3.7-1.57 6.25-2.97 7.91l-38.26-19.63 4.29-8.07c2.96-5.43 4.09-16.44 3.49-27.09h9.49c-1.14 2.44-2.66 4.44-2.66 6.15 0 1.57 1.23 2.8 2.79 2.8 1.4 0 3.13-1.07 5.36-1.07 4.12 0 8.5.66 8.83 7.84-4.55-.83-10.4 1.4-10.4 6.25 0 1.73 1.57 3.39 3.3 3.39s2.65-.9 3.38-2.97c.5-1.49 1.23-2.15 2.47-2.15 1.89 0 3.88 1.57 3.88 3.22 0 1-.66 1.57-1.33 2.47-.66.75-.9 1.58-.9 2.48 0 1.56 1.57 3.05 3.29 3.05 2.56 0 4.62-2.55 4.62-5.94 0-2.79-.9-5.11-2.56-6.91 2.06-.59 8.67-.43 10.14 2.96 1.66 3.05 5.54 2.3 5.94-.9.74-6.85 4.29-10.4 11.87-11.63 2.65 7.17 1.25 11.86-4.29 15.99-2.63 1.98-1.3 6.1 1.99 5.68 3.88-.41 7.58 2.81 8 6.68-2.39-.66-4.71-.17-7.17 1.16-2.89 1.56-4.05 4.45-2.82 6.67.83 1.49 2.65 2.06 4.12 1.33.83-.42 1.25-1 1.75-1.82.4-1.07.57-1.82 1.47-2.39 1.4-.74 3.88.09 4.62 1.72.5 1.16.33 1.99-.66 3.15-1.4 1.64-1.73 2.8-.91 4.29.83 1.47 2.97 2.13 4.46 1.23 4.04-2.48 3.22-8.5.24-11.79 2.06-1 9.06.99 11.05 4.52 1.07 1.99 1.07 3.96 1.73 5.12.83 1.49 2.47 1.98 3.79 1.23 2.39-1.47 3.62-6.35 7.67-8.74 4.2-2.46 10.05-2.39 17.81 3.55-18.14 8.17-34.46 13.28-44.76 27.37l-13.61-6.77c-.24 1.33-.57 2.56-1.07 3.56l12.29 7.24c-1.49 4.71-3.15 7.6-8.17 9.73 4.62-.49 7.34-1.72 8.98-4.69l3.15-6.01c1.56-2.98 3.62-4.71 6.51-4.71 3.95 0 6.34 3.22 6.34 8.33z"/><path class="cls-1" d="M215.44 162.49c-5.19-4.19-7.34-6.51-10.87-8 1.3-3.86 4.85-7.25 9.3-8.81-2.13 2.56-2.55 4.45-2.55 7.01 0 3.38.26 5.44 4.12 9.8z"/><path class="cls-1" d="M264.41 90.95c2.22 0 2.89 1.97 5.61 1.97 3.7 0 6.58-2.3 8.74-8.57-7.44 3.88-16.41-6.92-27.87 1.98 2.55-14.27 18.37-12.12 18.71-19.95 2.22 4.04.82 7.83-5.27 9.06-3.64.74-6.93 2.97-8.83 5.69 4.71-2.14 8.5-2.14 12.53-1.73 13.28 1.23 16.82-14.92 2.56-21.17-1.73 5.68-6.59 5.35-9.14 9.3.16-1.82.97-3.12 1.96-4.45l-38.24-17.64c-6.02 9.81-7.58 9.4-7.58 12.12 0 1.24.33 2.14 1.4 3.7-5.02 2.56-7.25 4.62-11.3 10.49-7 10.21-9.97 15.65-10.96 21.17.9 2.8 2.23 4.78 5.28 7.17 0 8.82 4.62 13.93 11.63 13.93 8.64 0 9.97-7.34 20.03-7.34 9.21 0 14.99 8.9 14.99 22.92 0 11.72-1.8 20.7-5.52 26.88-4.38 7.34-11.46 10.3-19.29 10.3-15 0-15.25-9.48-24.16-9.48-6.42 0-10.37 5.52-11.2 10.71 6.58 8.67 16.81 12.62 29.67 12.62 24.41 0 38.67-19.77 38.67-51.86 0-23.56-7.75-32.13-20.77-32.13-5.21 0-8.26 1.06-13.36 4.19 7.99-5.26 12.77-7.74 17.96-7.74 4.21 0 7.6 1.32 10.56 3.29 7.34 5.04 8.57 11.05 14.35 11.05 3.29 0 5.92-2.22 11.37-11.86-2.56 2.37-5.03 3.29-8.08 3.29-4.86 0-7.25-2.89-7.25-5.04 0-1.64 1.14-2.87 2.8-2.87zm-42.37-7.34c3.79-7.01 5.69-9.4 8.15-12.03-.64-1.75-.64-3.81-.24-5.54-1.06-.9-3.46-2.96-7.5-3.53 9.64-5.2 18.06 7.58 24.15 3.79-4.95 8.81-17.55 5.45-24.56 17.31z"/><path class="cls-1" d="M241.32 150.63c0 4.19-2.91 9.03-8.87 12.01 3.24-1.91 4.92-5.83 4.92-9.46 0-8.83-5.93-14.09-16.39-14.09-12.13 0-32.09 12.11-47.01 12.11-12.52 0-22.33-7.99-22.33-18.14 0-10.8 8.57-16.32 16.32-16.32 5.11 0 9.8 2.39 11.39 7.34l-.26-.24.16.32a9.157 9.157 0 00-5.77-2.06c-5.1 0-10.14 4.04-10.14 9.98 0 6.76 5.45 11.54 12.95 11.54 17.81 0 31.24-9.9 44.19-9.9 16.06 0 20.84 9.73 20.84 16.91z"/><path class="cls-1" d="M0 0v262.25h38.33c1.05-.12 2.11-.16 3.18-.09.4.02.8.05 1.18.09H370.9V0H0zm365.9 220.71c-3.11 2.94-4.47 6.23-4.47 9.86s1.81 6.13 4.47 8.29v8.32c-6.08-4.12-11.65-8.51-11.65-15.61 0-6.51 3.09-11.27 11.65-14.12v3.26zm0-10.29c-16.54 3.47-25.32 9.35-25.32 21.24s11.3 18.31 18.43 25.59h-53.79c-6.85-6.94-13.8-14.92-20.78-24.03-11.7 8.81-23.58 10.64-34.95 10.64-21.69 0-33.13-5.03-58.04-5.03-14.66 0-28.27 5.6-40.87 11.87-5.08 2.51-9.53 4.7-13.48 6.55H93.6c-3.26-2.14-6.87-4.76-11.03-7.88-11.3-8.31-14.02-17.05-19.13-20.76-8.65-6.35-21.6-4.05-23.99 8.57 3.79-.09 7.43.83 10.39 2.96 9.21 6.64 6.41 8.1 21.69 17.11h-3.78c-15.01-6.48-12.79-9.65-24.84-13.89-9.51-3.34-21.19 2.79-21.11 13.89h-4.13c.03-1.41.27-2.79.77-4.16l.64-1.89c-5.35.26-10.18 2.31-14.08 5.81V5h360.9v.09l-67.11 16.36c-.09 3.22-1.09 6.02-4.62 9.07 29.29-7.62 55.02-14.29 71.73-18.3v2.09c-16.35 4.65-41.49 11.31-70.5 18.68 4.36 1.32 5.95 4.21 6.76 7.26l63.74-18.08v58.84a65.07 65.07 0 00-28.96 54.04c-.06 25.23 14.42 42.99 28.96 55.02v12.09c-31.16.22-47.41 12.51-47.41 28.27 0 14.75 13.6 23.16 24.96 22.24-5.68-4.79-11.6-11.44-11.6-21.34 0-12.1 12.06-21.04 34.05-21.03h.57l-.57.12zm0-111.42v73.36c-10.15-11.87-14.85-23.95-14.85-37.15 0-13.85 5.76-25.72 11.04-32.15 1.19-1.72 2.48-3.08 3.81-4.06z"/><path class="cls-1" d="M365.9 210.3v.12l.57-.12h-.57zm0 0v.12l.57-.12h-.57zm0 0v.12l.57-.12h-.57zM41.51 262.16c-1.07-.07-2.13-.03-3.18.09h4.36c-.38-.04-.78-.07-1.18-.09zM365.9 210.3v.12l.57-.12h-.57z"/></g></svg>