<svg width="500" height="500" viewBox="0 0 500 500" fill="none" xmlns="http://www.w3.org/2000/svg">
<g clip-path="url(#clip0)">
<path d="M419.944 56.9207C404.236 68.1182 374.376 83.5148 335.807 74.028C269.089 57.5428 249.96 0 249.96 0C249.96 0 230.83 57.5428 164.112 73.8725C125.543 83.3593 95.6827 68.1182 79.9751 56.7652H68V366.719C68 374.495 69.8663 390.047 82.619 405.443C98.3266 424.572 124.921 437.014 161.779 442.302C191.173 446.501 212.79 455.832 228.031 470.451C239.229 481.337 249.96 500 249.96 500C249.96 500 261.002 480.871 271.888 470.451C287.129 455.677 308.902 446.501 338.14 442.302C374.998 437.014 401.593 424.572 417.3 405.599C430.053 390.202 431.919 374.65 431.919 366.874V56.9207H419.944Z" fill="white"/>
<path d="M421.032 68.8957C421.032 68.8957 384.485 97.3561 333.163 84.4478C273.287 69.5178 249.959 24.7278 249.959 24.7278C249.959 24.7278 226.631 69.6734 166.756 84.6034C115.434 97.5116 78.8862 69.0513 78.8862 69.0513V366.874C78.8862 376.983 83.0853 419.907 163.334 431.571C195.06 436.081 218.7 446.345 235.651 462.675C241.717 468.585 246.382 474.495 249.959 479.938C253.536 474.495 258.202 468.429 264.267 462.675C281.219 446.345 304.858 436.081 336.585 431.571C416.833 419.907 421.032 376.983 421.032 366.874V68.8957Z" fill="#013369"/>
<path d="M249.959 449.611C249.959 449.611 273.288 420.995 333.63 411.664C402.837 400.933 400.815 368.429 400.815 366.874V210.731H98.9485V366.719C98.9485 368.429 96.9268 400.933 166.134 411.509C226.631 420.995 249.959 449.611 249.959 449.611Z" fill="white"/>
<path d="M179.664 324.728V250.544L170.333 245.257V225.972H212.634V245.257L203.77 250.544V401.866L181.063 395.023L148.249 298.289V362.053L158.668 369.984V389.58L113.256 378.072V361.275L123.676 357.232V250.389L112.945 245.101V225.816H147.315L179.664 324.728Z" fill="#D50A0A"/>
<path d="M257.58 392.69L266.6 403.577V422.861L221.499 406.065V389.736L231.452 385.692V250.855L221.499 245.879V226.438H299.726V265.63H282.463L277.176 249.611H257.269V294.868H272.199L278.109 286.314H290.084V326.594H278.109L272.51 318.507H257.269V392.69H257.58Z" fill="#D50A0A"/>
<path d="M307.347 399.378V380.093L318.544 370.918V250.544L309.057 245.568V226.127H354.159V245.568L345.294 250.544V363.453L364.734 358.165L368.466 328.616H386.818V378.072L307.347 399.378Z" fill="#D50A0A"/>
<path d="M106.88 178.849L93.1943 168.585H109.835L115.278 152.722L120.722 168.585H137.362L123.987 178.849L128.964 194.868L115.434 185.381L101.904 194.868L106.88 178.849Z" fill="white"/>
<path d="M166.134 178.849L152.448 168.585H169.089L174.532 152.722L179.975 168.585H196.616L182.93 178.849L187.907 194.868L174.376 185.381L160.846 194.868L166.134 178.849Z" fill="white"/>
<path d="M106.88 125.35L93.1943 115.086H109.835L115.278 99.2224L120.877 115.086H137.518L123.987 125.35L128.964 141.369L115.434 131.882L101.904 141.369L106.88 125.35Z" fill="white"/>
<path d="M166.134 125.35L152.448 115.086H169.089L174.532 99.2224L180.13 115.086H196.771L183.085 125.35L188.062 141.369L174.532 131.882L161.001 141.369L166.134 125.35Z" fill="white"/>
<path d="M398.016 194.868L384.486 185.381L370.955 194.868L375.932 178.849L362.246 168.585H379.042L384.486 152.722L389.929 168.585H406.57L393.039 178.849L398.016 194.868Z" fill="white"/>
<path d="M338.918 194.868L325.387 185.381L311.857 194.868L316.834 178.849L303.148 168.585H319.789L325.232 152.722L330.675 168.585H347.316L333.63 178.849L338.918 194.868Z" fill="white"/>
<path d="M398.016 141.369L384.486 131.882L370.955 141.369L375.932 125.35L362.246 115.086H379.042L384.486 99.2224L389.929 115.086H406.57L392.884 125.35L398.016 141.369Z" fill="white"/>
<path d="M338.918 141.369L325.387 131.882L311.857 141.369L316.834 125.35L303.148 115.086H319.789L325.232 99.2224L330.831 115.086H347.471L333.786 125.35L338.918 141.369Z" fill="white"/>
<path d="M287.595 82.5816C287.595 82.5816 280.597 86.3141 270.644 95.9564C272.821 97.2006 275.309 98.9113 276.864 100.156C275.309 101.555 273.91 102.955 272.51 104.199C266.133 98.9113 259.446 96.2675 254.158 95.0233C255.869 93.7791 257.735 92.535 259.446 91.4463C262.245 92.2239 264.889 93.3126 264.889 93.3126C276.087 84.7589 285.729 81.182 285.729 81.182C285.729 81.182 284.64 80.5599 281.686 80.7154C237.829 81.3375 197.549 113.997 205.169 169.984C205.947 175.894 208.28 186.781 211.235 191.446C212.168 182.115 215.745 161.586 226.165 139.502C222.588 138.258 219.633 137.636 219.633 137.636C220.721 135.459 222.121 132.504 222.121 132.504C229.742 133.904 236.584 137.17 242.494 141.835C241.095 144.168 240.161 145.568 239.384 146.812C237.362 145.257 235.185 143.857 233.007 142.457C221.343 162.83 215.9 182.115 213.723 192.224C213.878 192.846 215.123 193.157 216.211 193.002C264.267 186.781 286.662 162.364 293.505 135.77C298.015 118.351 296.46 100.156 290.55 85.2255C289.773 84.1368 288.995 82.4261 287.595 82.5816ZM246.227 135.459C240.006 130.327 232.696 127.061 225.542 125.661C225.542 125.661 227.72 122.084 228.964 120.218C237.673 121.928 244.827 125.972 249.804 130.171C248.56 132.037 247.315 133.748 246.227 135.459ZM254.158 124.261C248.404 119.44 241.25 115.708 233.319 114.152C234.563 112.597 235.962 110.886 237.362 109.331C243.427 110.42 251.203 113.686 258.046 119.285C256.647 120.995 255.403 122.706 254.158 124.261ZM263.023 113.686C256.958 108.709 250.115 105.443 242.961 103.888C244.672 102.177 246.538 100.778 248.093 99.5334C257.113 101.711 263.179 105.754 267.378 109.176C265.667 110.731 264.267 112.286 263.023 113.686Z" fill="white"/>
</g>
<defs>
<clipPath id="clip0">
<rect width="363.919" height="500" fill="white" transform="translate(68)"/>
</clipPath>
</defs>
</svg>
