<svg width="2744" height="241" fill="none" xmlns="http://www.w3.org/2000/svg"><g clip-path="url(#clip0)" fill="#000"><path d="M430.63 60.27c15.922 0 28.83-12.907 28.83-28.83 0-15.922-12.908-28.83-28.83-28.83-15.923 0-28.83 12.908-28.83 28.83 0 15.923 12.907 28.83 28.83 28.83zM48.16 19.53v216.72H0V19.53h48.16zM120.12 75.25v28.84h.84c12.04-21.84 31.92-32.2 53.2-32.2 33.32 0 54.04 21 54.04 66.08v98.28h-46.48v-85.4c0-29.12-7.84-42-27.72-42-20.44 0-33.04 15.12-33.04 43.12v84.28H74.48v-161h45.64zM347.64 189.77c0-12.04-15.12-11.2-39.2-15.12-17.36-2.8-36.68-5.32-48.16-16.52-7-7-11.76-17.08-11.76-31.92 0-33.32 27.72-54.32 67.2-54.32 37.8 0 64.96 18.2 71.68 48.72l-40.04 6.72c-2.8-14.28-14.28-21.84-31.64-21.84-13.44 0-23.24 5.32-23.24 16.8 0 13.16 12.88 13.16 38.08 16.8 18.2 2.52 37.52 4.2 49.56 15.68 7.28 6.72 11.48 16.24 11.48 31.08 0 32.76-27.16 54.04-70.56 54.04-43.68 0-71.96-16.52-79.52-49.28l42.84-8.4c3.64 16.52 16.52 24.08 37.52 24.08 16.52 0 25.76-6.16 25.76-16.52zM453.87 75.25v161h-46.48v-161h46.48zM538.07 71.33c21.28 0 35.56 10.64 44.24 28h.84V8.05h46.48v228.2h-45.64v-28.28h-.84c-8.96 19.32-24.92 31.92-49.84 31.92-34.16 0-63.56-30.24-63.56-82.32 0-57.12 33.6-86.24 68.32-86.24zm45.64 84.28c0-29.12-13.16-46.2-33.04-46.2-20.44 0-33.6 16.8-33.6 47.04 0 28.56 12.88 45.36 33.04 45.36 20.44 0 33.6-16.8 33.6-46.2zM726.51 71.61c30.24 0 52.92 12.88 65.24 36.959 8.12 15.96 11.48 35 10.92 57.68H691.51c1.96 23.24 15.96 36.96 37.8 36.96 17.92 0 29.96-8.12 35.84-24.08l39.48 11.48c-11.76 31.92-39.48 49.56-76.72 49.56-51.52 0-82.88-31.92-82.88-82.88 0-50.4 34.16-85.68 81.48-85.68zm-34.44 66.359h64.4c-.56-6.16-1.96-10.92-3.92-15.4-4.2-9.52-14-14.84-26.04-14.84-18.76 0-31.08 10.92-34.44 30.24zM975.67 15.61c51.24 0 85.4 29.96 94.92 81.76l-48.16 9.239c-6.16-33.04-22.12-48.72-47.6-48.72-32.2 0-54.6 23.52-54.6 71.12 0 43.68 20.72 68.88 54.6 68.88 24.92 0 41.44-12.6 49.84-45.64l47.04 10.36c-10.92 48.44-45.36 77.56-98.28 77.56-61.6 0-102.48-40.04-102.48-109.76 0-72.8 46.2-114.8 104.72-114.8zM1129.94 8.05v228.2h-46.48V8.05h46.48zM1200.22 75.25v161h-46.48v-161h46.48zM1269.66 75.25v28.84h.84c11.76-21.84 30.24-32.2 50.68-32.2 24.36 0 41.16 12.88 46.2 40.32h.84c10.92-27.16 31.92-40.32 54.32-40.32 31.08 0 50.68 21 50.68 66.08v98.28h-46.48v-87.64c0-27.44-7-39.76-24.64-39.76-18.76 0-30.24 15.4-30.24 44.24v83.16h-46.48v-87.64c0-27.44-7-39.76-24.64-39.76-18.76 0-30.24 15.4-30.24 44.24v83.16h-46.48v-161h45.64zM1588.3 209.649h-.84c-8.96 17.08-25.76 30.52-53.48 30.52-28.84 0-48.72-16.52-48.72-44.8 0-15.96 5.88-28.84 19.32-37.52 9.52-6.16 22.4-10.36 40.32-12.6l22.12-2.8c17.08-2.24 21.84-8.12 21.84-17.36 0-10.36-7.28-17.08-21.84-17.08-15.12 0-26.88 6.44-31.08 26.04l-42.84-6.44c10.08-36.4 36.96-56 75.04-56 39.48 0 65.52 19.04 65.52 62.72v55.16c0 12.32 3.92 16.52 15.96 16.52 3.36 0 5.32-.28 7-.56v30.24c-4.76 1.96-15.4 3.64-26.04 3.64-25.2 0-39.76-9.8-42.28-29.68zm-33.6-1.4c21.84 0 33.88-18.48 33.88-42.56v-5.04c-3.92 2.52-8.96 3.92-15.12 4.76l-17.36 2.8c-15.68 2.52-22.96 8.96-22.96 20.72 0 13.44 8.96 19.32 21.56 19.32zM1761.34 234.85c-9.52 3.08-19.88 5.04-34.44 5.04-36.96 0-53.2-15.96-53.2-52.92v-77.56h-31.36V75.25h32.2V45.57l45.64-17.36v47.04h40.88v34.16h-40.88v70c0 18.76 5.6 24.08 24.92 24.08 6.44 0 11.48-.56 16.24-1.4v32.76zM1847.3 71.61c30.24 0 52.92 12.88 65.24 36.959 8.12 15.96 11.48 35 10.92 57.68H1812.3c1.96 23.24 15.96 36.96 37.8 36.96 17.92 0 29.96-8.12 35.84-24.08l39.48 11.48c-11.76 31.92-39.48 49.56-76.72 49.56-51.52 0-82.88-31.92-82.88-82.88 0-50.4 34.16-85.68 81.48-85.68zm-34.45 66.359h64.4c-.56-6.16-1.96-10.92-3.92-15.4-4.2-9.52-14-14.84-26.04-14.84-18.75 0-31.07 10.92-34.44 30.24zM2185.25 236.25h-49l-90.44-152.32v152.32h-43.4V19.53h56l83.44 143.36V19.53h43.4v216.72zM2284.09 71.61c30.24 0 52.92 12.88 65.24 36.959 8.12 15.96 11.48 35 10.92 57.68h-111.16c1.96 23.24 15.96 36.96 37.8 36.96 17.92 0 29.96-8.12 35.84-24.08l39.48 11.48c-11.76 31.92-39.48 49.56-76.72 49.56-51.52 0-82.88-31.92-82.88-82.88 0-50.4 34.16-85.68 81.48-85.68zm-34.44 66.359h64.4c-.56-6.16-1.96-10.92-3.92-15.4-4.2-9.52-14-14.84-26.04-14.84-18.76 0-31.08 10.92-34.44 30.24zM2479.25 127.33l-26.6 108.92h-48.72l-45.36-161h47.32l25.76 108.92 28.56-108.92h39.48l30.52 110.32 24.92-110.32h43.4l-44.52 161h-46.48l-28.28-108.92zM2699.88 189.77c0-12.04-15.12-11.2-39.2-15.12-17.36-2.8-36.68-5.32-48.16-16.52-7-7-11.76-17.08-11.76-31.92 0-33.32 27.72-54.32 67.2-54.32 37.8 0 64.96 18.2 71.68 48.72l-40.04 6.72c-2.8-14.28-14.28-21.84-31.64-21.84-13.44 0-23.24 5.32-23.24 16.8 0 13.16 12.88 13.16 38.08 16.8 18.2 2.52 37.52 4.2 49.56 15.68 7.28 6.72 11.48 16.24 11.48 31.08 0 32.76-27.16 54.04-70.56 54.04-43.68 0-71.96-16.52-79.52-49.28l42.84-8.4c3.64 16.52 16.52 24.08 37.52 24.08 16.52 0 25.76-6.16 25.76-16.52zM1176.98 60.27c15.92 0 28.83-12.907 28.83-28.83 0-15.922-12.91-28.83-28.83-28.83-15.92 0-28.83 12.908-28.83 28.83 0 15.923 12.91 28.83 28.83 28.83z"/></g><defs><clipPath id="clip0"><path fill="#fff" d="M0 0h2743.84v240.17H0z"/></clipPath></defs></svg>