<?xml version="1.0" encoding="UTF-8"?><svg id="a" xmlns="http://www.w3.org/2000/svg" viewBox="0 0 600 87.42"><defs><style>.b{fill:#f15919;stroke-width:0px;}</style></defs><path class="b" d="M190.06.8h-34.79l-6.32,64.4-.46,4.64v.54c-.1,4.14,1.38,8.16,4.13,11.26,3.06,3.4,8.76,4.58,8.76,4.58,2.28.42,4.59.65,6.91.7h41.97v.03l3.59-36.5h-28.68L190.06.8Z"/><path class="b" d="M265.26,0c-25.86.16-47.49,20.1-48.29,44.49-.8,24.41,19.48,43.09,45.34,42.93,25.86-.16,47.49-19.05,48.29-43.47C311.41,19.54,291.12-.16,265.26,0ZM262.65,79.53h-.26c-10.62,0-20.63-4.04-27.5-11.1-6.32-6.49-9.63-15.08-9.33-24.18.66-19.91,18.31-36.22,39.36-36.35,10.74.08,20.34,3.9,27.4,11.15,6.56,6.74,10,15.58,9.69,24.91-.65,19.81-17.94,35.43-39.36,35.57Z"/><rect class="b" x="226.07" y="48.56" width="28.92" height="24.8" transform="translate(133.47 -162.9) rotate(50.22)"/><rect class="b" x="269.77" y="12.56" width="31.53" height="24.8" transform="translate(122.01 -210.45) rotate(50.22)"/><path class="b" d="M264.22,32.27h0c-6.82.04-12.54,5.29-12.75,11.69-.09,2.87.95,5.58,2.94,7.62,2.2,2.26,5.46,3.55,8.96,3.56,6.94-.04,12.54-5.05,12.75-11.4.1-2.96-.99-5.76-3.07-7.89-2.3-2.36-5.44-3.65-8.82-3.58Z"/><path class="b" d="M291.49,20.09c-6.8-6.99-16.02-10.89-26.46-10.73-20.42.13-37.55,15.86-38.18,35.07-.28,8.64,2.86,16.8,8.86,22.96,6.67,6.85,16.52,10.67,26.85,10.68,20.78-.13,37.56-15.16,38.19-34.22.29-8.89-2.99-17.33-9.25-23.75ZM263.46,52.95c-2.81,0-5.43-1.05-7.21-2.87-1.62-1.66-2.47-3.86-2.39-6.19.17-5.16,4.77-9.39,10.24-9.42,2.73-.05,5.25.98,7.11,2.89,1.68,1.73,2.57,4,2.49,6.4-.17,5.12-4.67,9.16-10.24,9.2Z"/><rect class="b" x="253.2" y="39.79" width="20.31" height="8.04" transform="translate(128.51 -186.61) rotate(50.22)"/><polygon class="b" points="93.93 .86 54.32 86.97 93.93 86.97 104.2 43.9 106.02 86.97 146.33 86.97 123.63 .86 93.93 .86"/><path class="b" d="M60.78,50.46L65.61.8H30.9l-4.56,46.07c-.19,1.9-1.93,3.51-3.86,3.51H3.64L0,86.91h18.65c1.9,0,5.57-.19,6.99-.19,29.96-.16,33.85-29.35,33.85-29.35.48-1.88,1.07-4.98,1.29-6.91Z"/><path class="b" d="M362.25.97c-1.93-.08-5.09-.16-7.02-.16h-32.96l-3.54-.03-.32,3.75-8.12,82.41h34.79l1.98-20.37c2.86,0,5.72-.07,8.58-.21,0,0,13.53-.59,22.19-7.5,7.26-5.79,11.52-14.28,12.6-25.25.13-1.47.24-2.89.24-4.29.08-8.87-2.55-15.87-7.83-20.85-7.26-6.89-20.58-7.5-20.58-7.5Z"/><polygon class="b" points="600 .83 526.98 .83 518.36 86.94 592.44 86.94 568.62 43.76 600 .83"/><polygon class="b" points="485.55 .75 477 86.88 477 86.91 510.42 86.91 518.97 .75 485.55 .75"/><polygon class="b" points="443.66 .8 442.42 14.42 441.41 25.06 427.42 .8 398.64 .8 390.68 86.94 423.38 86.94 425.7 62.74 439.74 86.94 468.43 86.94 476.36 .8 443.66 .8"/></svg>