<svg xmlns="http://www.w3.org/2000/svg" class="discover-logo" version="1.1" viewBox="140.7 239 501.1 134.9">
  <defs>
    <style>
      .cls-1 {
        fill: #231f20;
      }

      .cls-2 {
        fill: #ef413d;
      }
    </style>
  </defs>
  <!-- Generator: Adobe Illustrator 28.7.7, SVG Export Plug-In . SVG Version: 1.2.0 Build 194)  -->
  <g>
    <g id="Layer_1">
      <path class="cls-2" d="M252.4,265.7v-20.5c0-3.4-3.2-6.2-7.1-6.2h-97.5c-3.9,0-7.1,2.8-7.1,6.2v122.5c0,3.4,3.2,6.2,7.1,6.2h97.5c3.9,0,7.1-2.8,7.1-6.2v-23.1h-12v18.9h-87.6v-114.2h87.6v16.4h12Z"/>
      <g>
        <path class="cls-1" d="M638.5,333.2c1.8,0,3.3,1.4,3.3,3.2s-1.5,3.3-3.3,3.3-3.3-1.4-3.3-3.3,1.5-3.2,3.3-3.2ZM638.5,339.2c1.5,0,2.7-1.2,2.7-2.8s-1.2-2.8-2.7-2.8-2.7,1.2-2.7,2.8,1.2,2.8,2.7,2.8ZM637.2,334.5h1.5c.9,0,1.3.4,1.3,1.1s-.4,1-1,1l1.1,1.7h-.6l-1-1.6h-.6v1.6h-.6v-3.8ZM637.8,336.2h.6c.5,0,1,0,1-.6s-.4-.6-.8-.6h-.8v1.2Z"/>
        <path class="cls-1" d="M212,292.5c0-5.5-3-8.1-8.4-8.1h-16.9v42.5h16.8c5.7,0,8.5-2.7,8.5-8.1v-26.2ZM206.7,336.9h-32.1v-62.7h32.1c11.2,0,17.5,6.1,17.5,17.2v28.5c0,11-6.2,17-17.5,17"/>
        <rect class="cls-1" x="241" y="274.2" width="12.1" height="62.7"/>
        <g>
          <path class="cls-1" d="M310.1,336.9h-35.7c-3.5,0-5.7-2.2-5.7-5.8v-15.3h12.1v11.6h22.8v-10.6l-32-16.4c-2.2-1.1-2.9-2.6-2.9-5.2v-15.1c0-3.6,2.1-5.8,5.7-5.8h35.8c3.4,0,5.6,2.1,5.6,5.7v14.1h-12.1v-10.3h-22.8v9.4l32,16.3c2.2,1.2,3,2.7,3,5.3v16.2c0,3.6-2.1,5.8-5.7,5.8"/>
          <path class="cls-1" d="M375,336.9h-38c-3.5,0-5.5-2.2-5.5-5.8v-51c0-3.6,2-5.8,5.5-5.8h38c3.5,0,5.7,2.2,5.7,5.8v15.9h-12.1v-11.8h-25v42.8h25v-12.5h12.1v16.7c0,3.6-2.1,5.8-5.7,5.8"/>
          <path class="cls-1" d="M434.2,284.2h-25.8v42.8h25.8v-42.8ZM440.7,336.9h-38.9c-3.5,0-5.5-2.2-5.5-5.8v-51c0-3.6,2-5.8,5.5-5.8h38.9c3.5,0,5.6,2.2,5.6,5.8v51c0,3.6-2.1,5.8-5.6,5.8"/>
        </g>
        <polygon class="cls-1" points="491.2 336.9 479.2 336.9 458.2 274.4 458.2 274.2 470.6 274.2 485.2 320.7 499.9 274.2 512.3 274.2 512.3 274.4 491.2 336.9"/>
        <polygon class="cls-1" points="524.1 336.9 524.1 274.2 567.4 274.2 567.4 284.4 536.1 284.4 536.1 300.2 561.5 300.2 561.5 309.8 536.1 309.8 536.1 326.7 567.8 326.7 567.8 336.9 524.1 336.9"/>
        <path class="cls-1" d="M617.8,336.9l-19.4-27.1v-6.6h18.4v-19h-23.2v52.7h-12.1v-62.7h41.7c3.5,0,5.6,2.2,5.6,5.8v25.8c0,3.6-2.1,5.7-5.6,5.7h-9.4l18,24.8v.5h-13.9Z"/>
      </g>
    </g>
  </g>
</svg>