<?xml version="1.0" encoding="UTF-8"?>
<svg id="Layer_1" data-name="Layer 1" xmlns="http://www.w3.org/2000/svg" xmlns:xlink="http://www.w3.org/1999/xlink" viewBox="0 0 432 230">
  <defs>
    <style>
      .cls-1 {
        fill: #fff;
      }

      .cls-2 {
        fill: none;
      }

      .cls-3 {
        fill: #ed1c24;
      }

      .cls-4 {
        clip-path: url(#clippath);
      }
    </style>
    <clipPath id="clippath">
      <rect class="cls-2" x="148.95" y="34.32" width="134.82" height="160.67"/>
    </clipPath>
  </defs>
  <rect class="cls-3" width="432" height="230"/>
  <polygon class="cls-1" points="148.95 169.11 148.95 194.46 167.38 194.46 167.38 188.78 155.56 188.78 155.56 169.11 148.95 169.11"/>
  <polygon class="cls-1" points="168.51 169.11 168.51 194.46 189.07 194.46 189.07 188.78 175.12 188.78 175.12 183.95 187.54 183.95 187.54 178.84 175.12 178.84 175.12 174.4 188.72 174.4 188.72 169.11 168.51 169.11"/>
  <path class="cls-1" d="M200.89,176.14h.07l2.81,8.87h-5.75l2.88-8.87ZM197.59,169.11l-9.48,25.35h6.78l1.6-4.55h8.84l1.56,4.55h6.89l-9.48-25.35h-6.71Z"/>
  <g class="cls-4">
    <path class="cls-1" d="M236.96,194.46h-4.26l-.39-2.77c-1.74,2.45-4.72,3.3-7.07,3.3-7.67,0-12.64-5.86-12.64-13.21s4.97-13.21,12.64-13.21c5.25,0,10.86,2.8,11.47,9.16h-6.6c-.21-2.17-2.35-3.48-5.01-3.48-4.26,0-5.89,3.76-5.89,7.53s1.63,7.53,5.89,7.53c3.27,0,5.47-1.53,5.82-3.84h-4.62v-4.9h10.65v13.88Z"/>
    <path class="cls-1" d="M260.95,183.99c0,7.35-3.37,11.01-11.04,11.01s-11.04-3.66-11.04-11.01v-14.88h6.6v15.27c0,3.27,1.21,4.93,4.44,4.93s4.44-1.67,4.44-4.93v-15.27h6.6v14.88Z"/>
    <polygon class="cls-1" points="263.22 169.11 283.42 169.11 283.42 174.4 269.83 174.4 269.83 178.84 282.25 178.84 282.25 183.95 269.83 183.95 269.83 188.78 283.78 188.78 283.78 194.46 263.22 194.46 263.22 169.11"/>
    <polygon class="cls-1" points="168.4 136.66 175.01 136.66 175.01 156.33 186.83 156.33 186.83 162.01 168.4 162.01 168.4 136.66"/>
    <polygon class="cls-1" points="187.96 136.66 208.16 136.66 208.16 141.95 194.56 141.95 194.56 146.38 206.99 146.38 206.99 151.5 194.56 151.5 194.56 156.33 208.52 156.33 208.52 162.01 187.96 162.01 187.96 136.66"/>
    <path class="cls-1" d="M233.54,162.01h-4.26l-.39-2.77c-1.74,2.45-4.72,3.3-7.07,3.3-7.67,0-12.64-5.86-12.64-13.21s4.97-13.21,12.64-13.21c5.25,0,10.86,2.81,11.47,9.16h-6.6c-.21-2.16-2.34-3.48-5.01-3.48-4.26,0-5.89,3.76-5.89,7.53s1.63,7.53,5.89,7.53c3.27,0,5.47-1.53,5.82-3.83h-4.62v-4.9h10.65v13.88Z"/>
    <path class="cls-1" d="M247.17,136.12c7.99,0,12.5,5.86,12.5,13.21s-4.51,13.21-12.5,13.21-12.5-5.86-12.5-13.21,4.51-13.21,12.5-13.21M247.17,156.86c4.26,0,5.89-3.76,5.89-7.53s-1.63-7.53-5.89-7.53-5.89,3.76-5.89,7.53,1.63,7.53,5.89,7.53"/>
    <path class="cls-1" d="M261.77,136.73c1.41,0,2.56,1.14,2.56,2.55s-1.14,2.56-2.56,2.56-2.55-1.12-2.55-2.56,1.13-2.55,2.55-2.55M261.77,141.53c1.24,0,2.24-1,2.24-2.23s-1-2.25-2.24-2.25-2.23,1-2.23,2.24.99,2.24,2.23,2.24M260.78,137.98c.13,0,.15-.02.4-.04.26-.02.37-.03.48-.03.84,0,1.25.33,1.25.95,0,.38-.16.6-.49.73h-.04s.04.04.05.06c.09.08.38.52.63.93h-.96c-.2-.37-.26-.47-.5-.88v.88h-.82v-2.6ZM261.7,139.2c.23,0,.36-.11.36-.32s-.12-.31-.35-.31c-.05,0-.06,0-.11,0v.6s.06.01.1.01"/>
    <path class="cls-1" d="M179.89,76.96l-.74,3.87,7.37-3.16c-.47-.99-.85-2.01-1.12-3.06l-5.5,2.36Z"/>
    <path class="cls-1" d="M268.91,62.87h0s0,0,0,0l-29.81-28.5-10.03,10.45c-4.14-1.6-10.66-2.89-15.61-2.89-7.21,0-14.63,2.46-19.82,5.67l-13.98-13.25h0s-.01-.01-.01-.01h0s0,0,0,0l-5,.52-10.8,59.11,5.03.52v-.02s22.78-9.97,22.78-9.97c.04.03.07.07.11.1,5.42,4.78,13.56,7.83,22.65,7.83,6.31,0,12.16-1.47,16.96-3.96l9.16,8.79,28.4-29.57v-4.81h0s0,0,0,0ZM213.21,43.05c4.7,0,10.99,1.21,14.99,2.66l-.18.19-4.43,4.62v.02c-2.8-.93-5.91-1.46-9.19-1.46-5.73,0-10.92,1.59-14.79,4.18l-.06-.05-4.65-4.4-.41-.39c5.08-3.07,11.67-5.35,18.72-5.35M219.45,54.82l-8.67,9.03-7.62-7.22c3.27-1.42,7.11-2.25,11.23-2.25,1.74,0,3.44.15,5.06.43M169.07,93.23l10.39-57.91,14.84,14.06,4.65,4.4,3.55,3.37,8.43,8.04v3.67l3.59,3.44-11.2,5.1c-2.53-1.07-4.73-2.5-6.45-4.22-.04-.04-.07-.08-.11-.12l8.59-4.01-20.21-18.82-.4-.4-.48,2.61-4.77,24.88-.74,3.86,1.26-.54v-.03s6.5-2.78,6.5-2.78c1.01,2.14,2.47,4.13,4.28,5.9l-21.73,9.5ZM216.34,74.06l4.84,4.65c-2.26.55-4.6.83-6.98.83-2.97,0-5.84-.43-8.53-1.27-.36-.11-.71-.24-1.06-.36l10.72-4.82,1.01.97ZM194.98,70.86c-.05-.08-.12-.15-.17-.23-.71-1.13-1.22-2.31-1.51-3.51-.03-.13-.04-.25-.07-.38.34-1.21.89-2.37,1.61-3.46l5.63,5.57-5.48,2.02ZM184.17,68.14s.02.07.02.1c-.01.14-.02.26-.02.36,0,1.42.87,4.81,1.23,6.15,0,0,0,0,0,0l-4.63,1.98,4.42-23.02,1.81,1.79c-2.03,3.09-3.06,6.4-3.06,9.86,0,.9.08,1.8.24,2.76M230.71,83.07c-1.09.55-2.24,1.05-3.43,1.49-4.08,1.51-8.48,2.27-13.08,2.27-6.52,0-12.69-1.55-17.84-4.48-2.85-1.62-5.24-3.59-7.11-5.84-.72-.86-1.35-1.76-1.88-2.67-1.1-1.88-1.82-3.85-2.15-5.87-.15-.9-.22-1.75-.22-2.59,0-3.12.89-6.13,2.66-8.94l4.74,4.8c-.32,1.1-.48,2.22-.48,3.33,0,.92.11,1.86.34,2.8.32,1.31.88,2.6,1.65,3.83.61.97,1.36,1.9,2.21,2.75,2.35,2.35,5.54,4.2,9.23,5.35,2.8.87,5.78,1.31,8.85,1.31,2.48,0,4.94-.3,7.29-.88,1.34-.33,2.64-.76,3.85-1.26,2.79-1.16,5.24-2.78,7.1-4.68,1.89-1.93,3.13-4.09,3.7-6.42.23-.94.34-1.88.34-2.8,0-2.64-.99-5.63-2.62-7.91l4.03-4.2c3.45,3.6,5.5,8.39,5.5,12.93,0,.83-.07,1.7-.22,2.59-.62,3.8-2.64,7.43-5.84,10.48-1.87,1.79-4.11,3.35-6.64,4.62M231.88,72.83l-7.03-6.85,5.96-6.21c2.12,1.77,3.69,3.88,4.52,6.2-.05.38-.12.76-.21,1.14-.5,2.05-1.59,3.97-3.23,5.72M244.27,67.92c.13-.86.21-1.72.21-2.54,0-4.83-2.19-9.93-5.87-13.73l.96-1,14.9,14.31-12.34,12.85c1.31-3.04,2.16-6.8,2.16-9.5,0-.11,0-.25-.02-.39M240.51,92.43l-6.06-5.81c2.38-1.63,4.39-3.54,5.94-5.67.02-.03.04-.06.06-.09l14.73-15.29.44-.47,1.92-2-17.99-17.27-4.04,4.21-4.46,4.65-3.04,3.16-5.73,5.97h0s-.5.52-.5.52l1.67,1.6,7.75,7.56c-1.7,1.61-3.85,2.98-6.28,3.99,0,0,0,0,0,0l-5.12-4.91-5.02-4.82-3.42-3.24,8.12-8.46,4.08-4.25,4.43-4.62,11.07-11.53,29.15,27.9-27.73,28.88Z"/>
    <polygon class="cls-1" points="164.47 101.3 184.72 101.3 182.81 109.1 173.1 109.1 172.14 113.2 182.27 113.2 180.51 120.43 170.51 120.43 168.11 130.69 157.65 130.69 164.47 101.3"/>
    <polygon class="cls-1" points="187.47 101.3 197.93 101.3 191.12 130.69 180.66 130.69 187.47 101.3"/>
    <path class="cls-1" d="M200.67,101.48l.67-.09c3.36-.4,7.53-.66,9.84-.66,3.84,0,6.82.44,9.07,1.37,2.88,1.19,4.61,3.79,4.61,6.92,0,2.69-.91,5.24-2.64,7.23-1.49,1.72-2.83,2.56-5.62,3.39l-.67.22c.29.22.38.31.53.44.82.93,3.26,5.68,5.33,10.4h-11.52c-1.49-4.19-1.92-5.29-3.89-10.05l-2.3,10.05h-10.18l6.77-29.21ZM208.4,115.32c3.36,0,5.71-1.98,5.71-4.8,0-1.5-1.1-2.25-3.26-2.25-.62,0-.96.04-1.63.18l-1.58,6.78c.34.04.38.09.77.09"/>
    <polygon class="cls-1" points="249.7 101.3 275.08 101.3 273.31 109.81 265.77 109.81 260.78 130.69 250.32 130.69 255.31 109.81 247.15 109.81 249.7 101.3"/>
    <path class="cls-1" d="M265.68,125.44c1.41,0,2.56,1.14,2.56,2.55s-1.13,2.56-2.56,2.56-2.54-1.11-2.54-2.56,1.12-2.55,2.54-2.55M265.68,130.23c1.24,0,2.24-1,2.24-2.23s-1-2.24-2.24-2.24-2.23,1-2.23,2.23.99,2.24,2.23,2.24M264.69,126.69c.13,0,.15-.02.4-.04.26-.02.36-.03.47-.03.84,0,1.25.33,1.25.95,0,.37-.16.6-.49.73h-.04s.04.04.05.06c.09.08.39.52.63.93h-.96c-.2-.36-.26-.46-.5-.88v.88h-.82v-2.59ZM265.61,127.91c.23,0,.35-.11.35-.32s-.12-.31-.35-.31c-.05,0-.06,0-.11,0v.6s.06,0,.1,0"/>
    <path class="cls-1" d="M222.82,129.95c2.94.87,6.16,1.36,9.16,1.36,4.08,0,7.2-.92,9.89-2.86,2.97-2.11,4.9-5.38,4.9-8.33,0-1.98-.86-3.79-2.4-5.07-1.2-.97-2.45-1.72-4.99-2.91l-2.06-.97c-.67-.35-1.01-.71-1.01-1.1,0-1.06,1.34-1.85,3.17-1.85,1.37,0,2.99.4,6.1,1.41l2.15-7.96c-2.32-.63-4.59-.95-6.85-.95-8.54,0-15.12,4.67-15.12,10.71,0,3.17,2.11,5.42,7.39,7.89,2.5,1.14,2.93,1.45,2.93,2.25,0,1.19-1.3,1.94-3.41,1.94-1.87,0-4.27-.57-7.54-1.76h0s-2.3,8.2-2.3,8.2Z"/>
  </g>
</svg>