<?xml version="1.0" encoding="UTF-8"?>
<svg width="462px" height="31px" viewBox="0 0 462 31" version="1.1" xmlns="http://www.w3.org/2000/svg" xmlns:xlink="http://www.w3.org/1999/xlink">
    <!-- Generator: Sketch 55.2 (78181) - https://sketchapp.com -->
    <title>Artboard Copy</title>
    <desc>Created with Sketch.</desc>
    <g id="Artboard-Copy" stroke="none" stroke-width="1" fill="none" fill-rule="evenodd">
        <g id="Group-2">
            <g id="Group" transform="translate(32.000000, 0.000000)" fill="#000000" fill-rule="nonzero">
                <path d="M6.1,7.5 L9.58,7.5 L16.24,24 L12.2,24 L10.98,20.7 L4.7,20.7 L3.48,24 L-0.56,24 L6.1,7.5 Z M7.84,12.6 L5.98,17.4 L9.7,17.4 L7.84,12.6 Z M20.4355556,7.5 L26.4555556,7.5 C29.6755556,7.5 32.0955556,9.16 32.0955556,12.58 C32.0955556,15.16 30.7155556,16.88 28.6355556,17.56 L34.0155556,24 L29.2355556,24 L24.4955556,17.88 L24.1955556,17.88 L24.1955556,24 L20.4355556,24 L20.4355556,7.5 Z M24.1955556,10.5 L24.1955556,14.88 L25.2555556,14.88 C26.7355556,14.88 28.1355556,14.38 28.1355556,12.7 C28.1355556,11 26.7355556,10.5 25.2555556,10.5 L24.1955556,10.5 Z M37.5711111,15.76 C37.5711111,11.02 41.8311111,7.2 46.5111111,7.2 C50.0911111,7.2 51.9311111,8.72 51.9311111,8.72 L50.3311111,11.92 C50.3311111,11.92 49.0111111,10.9 47.0911111,10.9 C43.3111111,10.9 41.6511111,13.56 41.6511111,15.76 C41.6511111,17.98 43.3111111,20.62 47.0911111,20.62 C49.0111111,20.62 50.3311111,19.6 50.3311111,19.6 L51.9311111,22.8 C51.9311111,22.8 50.0911111,24.32 46.5111111,24.32 C41.8511111,24.32 37.5711111,20.48 37.5711111,15.76 Z M56.9266667,7.5 L60.6866667,7.5 L60.6866667,14.08 L66.0066667,14.08 L66.0066667,7.5 L69.7666667,7.5 L69.7666667,24 L66.0066667,24 L66.0066667,17.38 L60.6866667,17.38 L60.6866667,24 L56.9266667,24 L56.9266667,7.5 Z M75.7222222,7.5 L79.4822222,7.5 L79.4822222,24 L75.7222222,24 L75.7222222,7.5 Z M81.9777778,7.5 L86.2177778,7.5 L90.3777778,18.34 L94.5377778,7.5 L98.7777778,7.5 L91.8577778,24 L88.8977778,24 L81.9777778,7.5 Z M102.973333,7.5 L112.413333,7.5 L112.413333,10.8 L106.733333,10.8 L106.733333,14.08 L112.173333,14.08 L112.173333,17.38 L106.733333,17.38 L106.733333,20.7 L112.413333,20.7 L112.413333,24 L102.973333,24 L102.973333,7.5 Z" id="ARCHIVE"></path>
                <path d="M155.2,7.5 L161.22,7.5 C164.44,7.5 166.86,9.16 166.86,12.58 C166.86,15.98 164.44,17.88 161.22,17.88 L158.96,17.88 L158.96,24 L155.2,24 L155.2,7.5 Z M158.96,10.5 L158.96,14.88 L160.02,14.88 C161.5,14.88 162.9,14.38 162.9,12.7 C162.9,11 161.5,10.5 160.02,10.5 L158.96,10.5 Z M171.335556,15.76 C171.335556,10.94 175.095556,7.2 179.655556,7.2 C184.215556,7.2 187.975556,10.94 187.975556,15.76 C187.975556,20.58 184.215556,24.32 179.655556,24.32 C175.095556,24.32 171.335556,20.58 171.335556,15.76 Z M175.395556,15.76 C175.395556,18.22 176.755556,20.7 179.655556,20.7 C182.555556,20.7 183.915556,18.22 183.915556,15.76 C183.915556,13.3 182.555556,10.82 179.655556,10.82 C176.755556,10.82 175.395556,13.3 175.395556,15.76 Z M193.191111,7.5 L196.951111,7.5 L196.951111,20.7 L202.631111,20.7 L202.631111,24 L193.191111,24 L193.191111,7.5 Z M208.046667,7.5 L211.806667,7.5 L211.806667,24 L208.046667,24 L208.046667,7.5 Z M215.762222,7.5 L227.362222,7.5 L227.362222,10.8 L223.442222,10.8 L223.442222,24 L219.682222,24 L219.682222,10.8 L215.762222,10.8 L215.762222,7.5 Z M232.277778,7.5 L236.037778,7.5 L236.037778,24 L232.277778,24 L232.277778,7.5 Z M240.613333,15.76 C240.613333,11.02 244.873333,7.2 249.553333,7.2 C253.133333,7.2 254.973333,8.72 254.973333,8.72 L253.373333,11.92 C253.373333,11.92 252.053333,10.9 250.133333,10.9 C246.353333,10.9 244.693333,13.56 244.693333,15.76 C244.693333,17.98 246.353333,20.62 250.133333,20.62 C252.053333,20.62 253.373333,19.6 253.373333,19.6 L254.973333,22.8 C254.973333,22.8 253.133333,24.32 249.553333,24.32 C244.893333,24.32 240.613333,20.48 240.613333,15.76 Z M264.868889,7.5 L268.348889,7.5 L275.008889,24 L270.968889,24 L269.748889,20.7 L263.468889,20.7 L262.248889,24 L258.208889,24 L264.868889,7.5 Z M266.608889,12.6 L264.748889,17.4 L268.468889,17.4 L266.608889,12.6 Z M279.204444,7.5 L282.964444,7.5 L282.964444,20.7 L288.644444,20.7 L288.644444,24 L279.204444,24 L279.204444,7.5 Z M303.075556,7.5 L312.515556,7.5 L312.515556,10.8 L306.835556,10.8 L306.835556,14.08 L312.275556,14.08 L312.275556,17.38 L306.835556,17.38 L306.835556,20.7 L312.515556,20.7 L312.515556,24 L303.075556,24 L303.075556,7.5 Z M318.831111,7.5 L322.831111,7.5 L326.491111,17.02 L330.151111,7.5 L334.151111,7.5 L335.631111,24 L331.871111,24 L331.091111,14.22 L327.611111,23.9 L325.371111,23.9 L321.891111,14.22 L321.111111,24 L317.351111,24 L318.831111,7.5 Z M345.606667,7.5 L349.086667,7.5 L355.746667,24 L351.706667,24 L350.486667,20.7 L344.206667,20.7 L342.986667,24 L338.946667,24 L345.606667,7.5 Z M347.346667,12.6 L345.486667,17.4 L349.206667,17.4 L347.346667,12.6 Z M359.942222,7.5 L363.702222,7.5 L363.702222,24 L359.942222,24 L359.942222,7.5 Z M369.657778,7.5 L373.417778,7.5 L373.417778,20.7 L379.097778,20.7 L379.097778,24 L369.657778,24 L369.657778,7.5 Z M385.213333,12.26 C385.213333,9.18 387.933333,7.2 390.593333,7.2 C393.593333,7.2 395.713333,8.78 395.713333,8.78 L394.193333,11.78 C394.193333,11.78 392.553333,10.62 390.853333,10.62 C389.573333,10.62 388.893333,11.22 388.893333,12.12 C388.893333,13.04 390.453333,13.7 392.333333,14.5 C394.173333,15.28 396.193333,16.84 396.193333,19 C396.193333,22.94 393.193333,24.32 389.973333,24.32 C386.113333,24.32 383.773333,22.14 383.773333,22.14 L385.653333,18.98 C385.653333,18.98 387.853333,20.84 389.693333,20.84 C390.513333,20.84 392.073333,20.76 392.073333,19.22 C392.073333,18.02 390.313333,17.48 388.353333,16.5 C386.373333,15.52 385.213333,13.98 385.213333,12.26 Z" id="POLITICALEMAILS"></path>
                <path d="M129.502,22.252 C129.105998,22.252 128.731002,22.1470011 128.377,21.937 C128.022998,21.726999 127.741001,21.4420018 127.531,21.082 C127.320999,20.7219982 127.216,20.3200022 127.216,19.876 C127.216,19.0959961 127.428998,18.2710043 127.855,17.401 C128.281002,16.5309957 128.868996,15.799003 129.619,15.205 C130.369004,14.610997 131.211995,14.314 132.148,14.314 C132.880004,14.314 133.464998,14.5359978 133.903,14.98 C134.341002,15.4240022 134.56,16.0119963 134.56,16.744 C134.56,17.5120038 134.350002,18.3279957 133.93,19.192 C133.509998,20.0560043 132.913004,20.7819971 132.139,21.37 C131.364996,21.9580029 130.486005,22.252 129.502,22.252 Z M129.844,21.604 C130.240002,21.604 130.653998,21.2740033 131.086,20.614 C131.518002,19.9539967 131.880999,19.1650046 132.175,18.247 C132.469001,17.3289954 132.616,16.5160035 132.616,15.808 C132.616,15.2319971 132.394002,14.944 131.95,14.944 C131.589998,14.944 131.188002,15.2649968 130.744,15.907 C130.299998,16.5490032 129.925002,17.3259954 129.619,18.238 C129.312998,19.1500046 129.16,19.9719963 129.16,20.704 C129.16,21.304003 129.387998,21.604 129.844,21.604 Z M133.3,27.238 C132.615997,27.238 132.097002,27.1210012 131.743,26.887 C131.388998,26.6529988 131.212,26.3620017 131.212,26.014 C131.212,25.7619987 131.301999,25.5430009 131.482,25.357 C131.662001,25.1709991 131.853999,25.078 132.058,25.078 C132.142,25.078 132.232,25.1319995 132.328,25.24 C132.424,25.3480005 132.561999,25.5279987 132.742,25.78 C132.922001,26.0080011 133.077999,26.1729995 133.21,26.275 C133.342001,26.3770005 133.503999,26.428 133.696,26.428 C133.972001,26.428 134.208999,26.2690016 134.407,25.951 C134.605001,25.6329984 134.817999,25.0960038 135.046,24.34 L137.476,15.826 C137.488,15.7899998 137.494,15.7420003 137.494,15.682 C137.494,15.5619994 137.404001,15.502 137.224,15.502 L136.144,15.52 C136.035999,15.52 135.961,15.4960002 135.919,15.448 C135.877,15.3999998 135.856,15.3280005 135.856,15.232 C135.856,15.1119994 135.906999,14.9890006 136.009,14.863 C136.111001,14.7369994 136.233999,14.6680001 136.378,14.656 L137.548,14.602 C137.668001,14.5899999 137.752,14.4940009 137.8,14.314 L137.944,13.81 C138.256002,12.7659948 138.666997,11.9050034 139.177,11.227 C139.687003,10.5489966 140.232997,10.0570015 140.815,9.751 C141.397003,9.44499847 141.957997,9.292 142.498,9.292 C143.038003,9.292 143.481998,9.41499877 143.83,9.661 C144.178002,9.90700123 144.352,10.2219981 144.352,10.606 C144.352,10.9180016 144.271001,11.1879989 144.109,11.416 C143.946999,11.6440011 143.758001,11.758 143.542,11.758 C143.397999,11.758 143.29,11.6950006 143.218,11.569 C143.146,11.4429994 143.044001,11.2180016 142.912,10.894 C142.803999,10.6179986 142.675001,10.4050007 142.525,10.255 C142.374999,10.1049992 142.186001,10.03 141.958,10.03 C141.573998,10.03 141.247001,10.2399979 140.977,10.66 C140.706999,11.0800021 140.440001,11.7399955 140.176,12.64 C140.031999,13.1320025 139.918,13.5879979 139.834,14.008 C139.786,14.200001 139.762,14.3139998 139.762,14.35 L139.762,14.386 C139.762,14.5180007 139.845999,14.584 140.014,14.584 C140.230001,14.584 140.541998,14.5720001 140.95,14.548 L141.832,14.53 C141.88,14.53 141.919,14.5509998 141.949,14.593 C141.979,14.6350002 141.994,14.6919996 141.994,14.764 C141.994,14.8600005 141.937001,14.9919992 141.823,15.16 C141.708999,15.3280008 141.604,15.412 141.508,15.412 L139.996,15.448 C139.803999,15.448 139.663,15.4779997 139.573,15.538 C139.483,15.5980003 139.42,15.6939993 139.384,15.826 C138.591996,18.5140134 137.842004,21.1839867 137.134,23.836 C136.989999,24.3880028 136.687002,24.9249974 136.225,25.447 C135.762998,25.9690026 135.256003,26.3979983 134.704,26.734 C134.151997,27.0700017 133.684002,27.238 133.3,27.238 Z" id="of"></path>
            </g>
            <polygon id="Star-Copy" fill="#2A677F" points="455 19.5 450.885503 21.663119 451.671302 17.0815595 448.342604 13.836881 452.942752 13.1684405 455 9 457.057248 13.1684405 461.657396 13.836881 458.328698 17.0815595 459.114497 21.663119"></polygon>
            <polygon id="Star-Copy-2" fill="#2A677F" points="7 19.5 2.88550323 21.663119 3.67130219 17.0815595 0.342604386 13.836881 4.94275162 13.1684405 7 9 9.05724838 13.1684405 13.6573956 13.836881 10.3286978 17.0815595 11.1144968 21.663119"></polygon>
        </g>
    </g>
</svg>