<?xml version="1.0" encoding="UTF-8"?>
<svg width="308px" height="24px" viewBox="0 0 308 24" version="1.1" xmlns="http://www.w3.org/2000/svg" xmlns:xlink="http://www.w3.org/1999/xlink">
    <!-- Generator: Sketch 53.2 (72643) - https://sketchapp.com -->
    <title>CUP logo single line red</title>
    <desc>Created with Sketch.</desc>
    <g id="Logo-Desktop" stroke="none" stroke-width="1" fill="none" fill-rule="evenodd">
        <g id="CUP-logo-single-line-red" fill="#FFFFFF" fill-rule="nonzero">
            <g id="Group" transform="translate(33.000000, 5.000000)">
                <path d="M7.25,14.33 C3.03,14.33 0.17,11.49 0.17,7.66 C0.17,3.81 3.03,0.97 7.25,0.97 C8.75,0.97 10.13,1.41 11.29,2.1 L10.37,4.64 C9.42,4.11 8.34,3.77 7.28,3.77 C4.86,3.77 3.36,5.25 3.36,7.65 C3.36,10.05 4.86,11.53 7.28,11.53 C8.34,11.53 9.54,11.18 10.51,10.58 L11.41,13.12 C10.29,13.87 8.73,14.33 7.25,14.33 Z" id="Path"></path>
                <path d="M20.02,14.33 C16.01,14.33 13.45,11.45 13.45,7.66 C13.45,3.85 16.13,0.97 20.14,0.97 C24.13,0.97 26.71,3.85 26.71,7.66 C26.71,11.45 24.01,14.33 20.02,14.33 Z M20.07,3.64 C18.02,3.64 16.65,5.32 16.65,7.65 C16.65,9.96 18.03,11.66 20.07,11.66 C22.11,11.66 23.5,9.97 23.5,7.65 C23.5,5.32 22.12,3.64 20.07,3.64 Z" id="Shape"></path>
                <path d="M36.62,14.11 L34.41,9.89 C34.23,9.91 34.07,9.91 33.9,9.91 C33.46,9.91 33.21,9.89 32.79,9.87 L32.79,14.11 L29.79,14.11 L29.79,1.3 C30.88,1.18 32.08,1.09 33.6,1.09 C37.63,1.09 39.21,3.01 39.21,5.38 C39.21,6.92 38.38,8.29 36.99,9.12 L40.03,14.12 L36.62,14.12 L36.62,14.11 Z M33.96,3.77 C33.5,3.77 33.22,3.79 32.79,3.86 L32.79,7.43 C33.18,7.47 33.39,7.48 33.74,7.48 C35.17,7.48 36.09,6.79 36.09,5.49 C36.09,4.4 35.24,3.77 33.96,3.77 Z" id="Shape"></path>
                <polygon id="Path" points="53.34 14.36 45.54 7.35 45.54 14.11 42.54 14.11 42.54 1 42.95 0.93 50.65 7.89 50.65 1.17 53.65 1.17 53.65 14.31"></polygon>
                <polygon id="Path" points="57.43 14.11 57.43 1.17 65.62 1.17 65.62 3.92 60.43 3.92 60.43 6.23 65.16 6.23 65.16 8.84 60.43 8.84 60.43 11.36 65.62 11.36 65.62 14.1 57.43 14.1"></polygon>
                <polygon id="Path" points="69.19 14.11 69.19 1.17 72.19 1.17 72.19 11.37 77.38 11.37 77.38 14.11"></polygon>
                <polygon id="Path" points="79.91 14.11 79.91 1.17 82.91 1.17 82.91 11.37 88.1 11.37 88.1 14.11"></polygon>
                <path d="M100.66,14.33 C97.18,14.33 95.24,12.46 95.24,8.86 L95.24,1.17 L98.24,1.17 L98.24,8.64 C98.24,10.48 99.02,11.59 100.73,11.59 C102.42,11.59 103.2,10.48 103.2,8.64 L103.2,1.17 L106.2,1.17 L106.2,8.85 C106.2,12.45 104.14,14.33 100.66,14.33 Z" id="Path"></path>
                <polygon id="Path" points="120.65 14.36 112.85 7.35 112.85 14.11 109.85 14.11 109.85 1 110.26 0.93 117.96 7.89 117.96 1.17 120.96 1.17 120.96 14.31"></polygon>
                <polygon id="Path" points="124.77 14.11 124.77 1.17 127.77 1.17 127.77 14.11"></polygon>
                <polygon id="Path" points="136.62 14.22 136.27 14.22 130.09 1.17 133.53 1.17 136.48 8.16 139.43 1.17 142.8 1.17"></polygon>
                <polygon id="Path" points="145.1 14.11 145.1 1.17 153.29 1.17 153.29 3.92 148.1 3.92 148.1 6.23 152.83 6.23 152.83 8.84 148.1 8.84 148.1 11.36 153.29 11.36 153.29 14.1 145.1 14.1"></polygon>
                <path d="M163.71,14.11 L161.5,9.89 C161.32,9.91 161.16,9.91 160.99,9.91 C160.55,9.91 160.3,9.89 159.88,9.87 L159.88,14.11 L156.88,14.11 L156.88,1.3 C157.97,1.18 159.17,1.09 160.69,1.09 C164.72,1.09 166.3,3.01 166.3,5.38 C166.3,6.92 165.47,8.29 164.08,9.12 L167.12,14.12 L163.71,14.12 L163.71,14.11 Z M161.04,3.77 C160.58,3.77 160.3,3.79 159.87,3.86 L159.87,7.43 C160.26,7.47 160.47,7.48 160.82,7.48 C162.25,7.48 163.17,6.79 163.17,5.49 C163.18,4.4 162.33,3.77 161.04,3.77 Z" id="Shape"></path>
                <path d="M173.2,14.33 C171.74,14.33 169.97,13.75 168.84,13.01 L169.67,10.29 C170.71,11.05 172.07,11.54 173.29,11.54 C174.35,11.54 174.75,11.04 174.75,10.41 C174.75,9.74 174.42,9.28 172.44,8.49 C170.16,7.57 169.37,6.25 169.37,4.69 C169.37,2.8 170.91,0.96 173.92,0.96 C175.33,0.96 176.78,1.45 177.54,1.97 L176.78,4.65 C176.04,4.14 174.84,3.59 173.92,3.59 C172.83,3.59 172.38,4.1 172.38,4.63 C172.38,5.48 173.03,5.76 174.66,6.45 C177.08,7.47 177.8,8.64 177.8,10.3 C177.8,12.37 176.3,14.33 173.2,14.33 Z" id="Path"></path>
                <polygon id="Path" points="180.95 14.11 180.95 1.17 183.95 1.17 183.95 14.11"></polygon>
                <polygon id="Path" points="193.43 3.93 193.43 14.12 190.43 14.12 190.43 3.93 186.55 3.93 186.55 1.17 197.32 1.17 197.32 3.92 193.43 3.92"></polygon>
                <polygon id="Path" points="206.84 8.99 206.84 14.11 203.84 14.11 203.84 8.97 199.29 1.17 202.73 1.17 205.38 6.13 208.03 1.17 211.4 1.17"></polygon>
                <path d="M222.49,10.28 C222.07,10.28 221.78,10.26 221.38,10.24 L221.38,14.11 L218.38,14.11 L218.38,1.3 C219.7,1.16 220.9,1.09 221.98,1.09 C225.72,1.09 227.74,3.08 227.74,5.7 C227.73,8.36 225.91,10.28 222.49,10.28 Z M222.49,3.89 C222.1,3.89 221.84,3.91 221.38,3.96 L221.38,7.65 C221.8,7.67 222,7.69 222.28,7.69 C223.87,7.69 224.66,7 224.66,5.75 C224.66,4.7 223.97,3.89 222.49,3.89 Z" id="Shape"></path>
                <path d="M237.3,14.11 L235.09,9.89 C234.91,9.91 234.75,9.91 234.58,9.91 C234.14,9.91 233.89,9.89 233.47,9.87 L233.47,14.11 L230.47,14.11 L230.47,1.3 C231.56,1.18 232.76,1.09 234.28,1.09 C238.31,1.09 239.89,3.01 239.89,5.38 C239.89,6.92 239.06,8.29 237.67,9.12 L240.71,14.12 L237.3,14.12 L237.3,14.11 Z M234.64,3.77 C234.18,3.77 233.9,3.79 233.47,3.86 L233.47,7.43 C233.86,7.47 234.07,7.48 234.42,7.48 C235.85,7.48 236.77,6.79 236.77,5.49 C236.77,4.4 235.93,3.77 234.64,3.77 Z" id="Shape"></path>
                <polygon id="Path" points="243.22 14.11 243.22 1.17 251.41 1.17 251.41 3.92 246.22 3.92 246.22 6.23 250.95 6.23 250.95 8.84 246.22 8.84 246.22 11.36 251.41 11.36 251.41 14.1 243.22 14.1"></polygon>
                <path d="M258.37,14.33 C256.91,14.33 255.14,13.75 254.01,13.01 L254.84,10.29 C255.88,11.05 257.24,11.54 258.46,11.54 C259.52,11.54 259.92,11.04 259.92,10.41 C259.92,9.74 259.59,9.28 257.61,8.49 C255.33,7.57 254.54,6.25 254.54,4.69 C254.54,2.8 256.08,0.96 259.09,0.96 C260.5,0.96 261.95,1.45 262.71,1.97 L261.95,4.65 C261.21,4.14 260.01,3.59 259.09,3.59 C258,3.59 257.55,4.1 257.55,4.63 C257.55,5.48 258.2,5.76 259.83,6.45 C262.25,7.47 262.97,8.64 262.97,10.3 C262.98,12.37 261.48,14.33 258.37,14.33 Z" id="Path"></path>
                <path d="M269.47,14.33 C268.01,14.33 266.24,13.75 265.11,13.01 L265.94,10.29 C266.98,11.05 268.34,11.54 269.56,11.54 C270.62,11.54 271.02,11.04 271.02,10.41 C271.02,9.74 270.69,9.28 268.71,8.49 C266.43,7.57 265.64,6.25 265.64,4.69 C265.64,2.8 267.18,0.96 270.19,0.96 C271.6,0.96 273.05,1.45 273.81,1.97 L273.05,4.65 C272.31,4.14 271.11,3.59 270.19,3.59 C269.1,3.59 268.65,4.1 268.65,4.63 C268.65,5.48 269.3,5.76 270.93,6.45 C273.35,7.47 274.07,8.64 274.07,10.3 C274.07,12.37 272.57,14.33 269.47,14.33 Z" id="Path"></path>
            </g>
            <path d="M12.35,0.54 C18.81,0.54 24.05,5.78 24.05,12.24 L18.3,12.24 C18.06,8.48 15.31,5.44 11.86,5.44 C8.13,5.44 5.4,8.89 5.4,12.77 C5.4,17.88 9.47,21.28 14.13,21.28 C18.47,21.28 22.51,18.17 22.76,13.73 L23.96,13.73 C23.23,19.49 18.31,23.94 12.35,23.94 C5.89,23.94 0.65,18.7 0.65,12.24 C0.65,5.77 5.89,0.54 12.35,0.54 L12.35,0.54 Z" id="Path"></path>
        </g>
    </g>
</svg>