<?xml version="1.0" encoding="utf-8"?>
<!-- Generator: Adobe Illustrator 28.0.0, SVG Export Plug-In . SVG Version: 6.00 Build 0)  -->
<svg version="1.1" id="Layer_1" xmlns="http://www.w3.org/2000/svg" xmlns:xlink="http://www.w3.org/1999/xlink" x="0px" y="0px"
	 viewBox="0 0 800 445.1" style="enable-background:new 0 0 800 445.1;" xml:space="preserve">
<g>
	<path d="M16.9,188l10.9-1.1c9.3-0.8,13.1-2.7,13.1-4.4V25.7c0-1.9-1.9-2.5-15.8-3.8l-7.9-0.8l-0.8-1.6h79.5L95,21.1l-10.9,1.1
		c-9.3,0.8-13.1,2.7-13.1,4.4v156.9c0,1.9,1.9,2.5,15.8,3.8l7.9,0.8l0.8,1.6H16.1L16.9,188z"/>
	<path d="M100.5,134.7c0-35.7,25.1-64.5,62.6-64.5c22.9,0,42.2,9.8,42.2,25.6c0,8.4-6.8,15.5-15,15.5c-8.4,0-15-6.8-15-14.4
		c0-8.7,6-13.3,6-15.5c0-3.8-8.2-8.7-16.6-8.7c-20.2,0-35.1,21-35.1,52.3c0,32.1,17.2,51.2,41.1,51.2c15.5,0,25.3-5.2,34.6-21.5
		l2.2,1.1c-12.3,24-28.1,37.9-51.5,37.9C123.9,193.5,100.5,168.2,100.5,134.7z"/>
	<path d="M214.3,134.4c0-35.9,25.6-64.5,61-64.5c29.7,0,45.2,16.9,45.2,37.9c0,1.6-0.3,2.5-0.5,4.4c0,0-72.2-0.5-76-0.8
		c-0.5,3.8-0.8,10.3-0.8,14.2c0,30.5,17.7,50.7,41.7,50.7c15.5,0,27-5.2,36.2-21.5l1.9,1.1c-12.5,24-28.9,37.9-52.8,37.9
		C237.7,193.5,214.3,167.9,214.3,134.4z M293,108.2c0-16.9-4.6-35.4-20.2-35.4c-13.6,0-25.6,16.3-28.6,35.9L293,108.2z"/>
	<path d="M328.7,188l4.4-0.3c8.4-0.5,10.9-0.8,10.9-4.1V41.5c0-16.3-1.9-18.5-11.2-21l-6-1.6l0.3-1.1l43.8-11.2v177.6
		c0,2.2,1.6,2.7,13.1,3.5l3.5,0.3l0.8,1.6h-60.5L328.7,188z"/>
	<path d="M461.6,170.9l-0.3-0.5c-10.6,11.4-22.1,21.8-35.9,21.8c-15.8,0-28-12-28-25.6c0-18.2,13.6-31.9,65.6-44.1l0.3-9
		c0.8-25.1-10.1-36.5-27.2-36.5c-9.8,0-18.5,4.6-18.5,7.6c0,1.9,7.6,8.2,7.6,15.5c0,6.8-6,13.1-14.4,13.1c-8.2,0-14.2-4.9-14.2-12.3
		c0-16.1,34.9-30.8,56.9-30.8c27.8,0,38.7,9.8,37,42.5l-2.7,51.5c-0.5,9.8,3.5,14.7,9.8,14.7c4.4,0,8.2-3.8,11.4-7.4l1.6,0.8
		c-5.4,6.8-15.5,20.2-28.6,20.2C470,192.4,463.2,184.5,461.6,170.9z M461.3,167.6l1.6-42.5c-32.1,7.4-38.9,18.2-38.9,31.9
		c0,11.7,7.9,20.2,17.2,20.2C448.2,177.1,454.2,174.7,461.3,167.6z"/>
	<path d="M512.8,188l4.4-0.3c8.4-0.5,11.4-0.8,11.4-4.1v-77.1c0-16.9-1.9-19.3-11.2-21.5l-6.3-1.4l0.3-1.1l44.4-12L555,93.8l0.8,0.3
		c11.2-9.5,27.2-24,46.3-24c8.7,0,15.8,2.7,21.2,8.4c6.3,6,8.4,16.6,8.4,28.6V184c0,1.6,0.5,2.5,14.2,3.8l3.3,0.3l0.8,1.6h-61.3
		l0.8-1.6l4.9-0.3c9.5-0.5,10.3-1.9,10.3-4.1V111c0-16.3-7.9-23.1-23.1-23.1c-11.4,0-19.9,4.4-26.1,9.8v86.6c0,2.2,1.4,2.7,12.5,3.5
		l4.1,0.3l0.5,1.6H512L512.8,188z"/>
	<path d="M746.4,169l-0.5-0.5c-11.4,14.2-25.3,24.8-42.8,24.8c-26.7,0-48.2-23.7-48.2-57.2c0-44.4,35.1-64.5,63.2-64.5
		c11.7,0,20.2,1.4,27.8,5.2h0.5V34.4c0-9.8-1.9-12.8-10.9-14.4l-9-1.6l0.3-1.1l46.3-11.2v164.2c0,8.7,1.4,9.8,6,11.2l11.4,2.5
		l-0.3,1.1l-43.8,9V169z M746.4,164.1v-62.9c-6.3-15-19.6-26.4-31.9-26.4c-19.6,0-30,24.2-30,53.7c0,27,13.3,48.7,35.1,48.7
		C731.7,177.1,739.9,171.4,746.4,164.1z"/>
	<path d="M13.3,409.5l4.4-0.3c8.4-0.5,11.4-0.8,11.4-4.1v-77.3c0-16.6-1.9-19.1-11.2-21.2l-6.3-1.4l0.3-1.1l44.1-12v113.6
		c0,2.2,1.6,2.5,13.6,3.5l3.5,0.3l0.8,1.6H12.5L13.3,409.5z M23.1,254.6c0-7.6,5.4-17.4,17.4-17.4c11.7,0,17.4,9.8,17.4,17.4
		c0,7.1-5.7,16.9-17.4,16.9C28.6,271.5,23.1,261.7,23.1,254.6z"/>
	<path d="M80.9,409.5l4.4-0.3c8.4-0.5,11.4-0.8,11.4-4.1v-77.1c0-16.9-1.9-19.3-11.2-21.5l-6.3-1.4l0.3-1.1l44.4-12l-0.8,23.1
		l0.8,0.3c11.2-9.5,27.2-24,46.3-24c8.7,0,15.8,2.7,21.2,8.4c6.3,6,8.4,16.6,8.4,28.6v76.8c0,1.6,0.5,2.4,14.2,3.8l3.3,0.3l0.8,1.6
		h-61.3l0.8-1.6l4.9-0.3c9.5-0.5,10.3-1.9,10.3-4.1v-72.7c0-16.3-7.9-23.1-23.1-23.1c-11.4,0-19.9,4.4-26.1,9.8v86.6
		c0,2.2,1.4,2.7,12.5,3.5l4.1,0.3l0.5,1.6H80L80.9,409.5z"/>
	<path d="M226,408.2l-1.9-34h1.4l6.3,12c7.9,16.3,18,26.1,33.5,26.1c15.3,0,24.2-9.5,24.2-22.1c0-13.6-11.7-20.7-28.6-27
		c-17.7-6.5-33.8-14.4-33.8-35.9c0-21.5,17.7-35.4,41.7-35.4c9.5,0,18.2,1.6,25.3,4.6l9.5-3l1.4,34l-1.4,0.3l-17.7-26.4
		c-3.8-3.3-9.8-7.1-17.7-7.1c-13.6,0-21,8.2-21,20.2c0,13.3,11.2,18,28,24.2c18.8,7.4,35.7,15.2,35.7,37.6
		c0,19.6-16.1,38.4-47.4,38.4C248.1,414.7,236.1,412,226,408.2z"/>
	<path d="M322.4,409.5l4.4-0.3c8.4-0.5,11.4-0.8,11.4-4.1v-77.3c0-16.6-1.9-19.1-11.2-21.2l-6.3-1.4l0.3-1.1l44.1-12v113.6
		c0,2.2,1.6,2.5,13.6,3.5l3.5,0.3l0.8,1.6h-61.5L322.4,409.5z M332.2,254.6c0-7.6,5.4-17.4,17.4-17.4c11.7,0,17.4,9.8,17.4,17.4
		c0,7.1-5.7,16.9-17.4,16.9C337.7,271.5,332.2,261.7,332.2,254.6z"/>
	<path d="M481.7,390.5l-0.5-0.5c-11.4,14.2-25.3,24.8-42.8,24.8c-26.7,0-48.2-23.7-48.2-57.2c0-44.4,35.1-64.5,63.2-64.5
		c11.7,0,20.2,1.4,27.8,5.2h0.5v-42.2c0-9.8-1.9-12.8-10.9-14.4l-9-1.6l0.3-1.1l46.3-11.2v164.2c0,8.7,1.4,9.8,6,11.2l11.4,2.5
		l-0.3,1.1l-43.8,9V390.5z M481.7,385.6v-62.9c-6.3-15-19.6-26.4-31.9-26.4c-19.6,0-30,24.2-30,53.7c0,27,13.3,48.7,35.1,48.7
		C467,398.7,475.2,392.9,481.7,385.6z"/>
	<path d="M529.4,355.9c0-35.9,25.6-64.5,61-64.5c29.7,0,45.2,16.9,45.2,37.9c0,1.6-0.3,2.5-0.5,4.4c0,0-72.2-0.5-76-0.8
		c-0.5,3.8-0.8,10.3-0.8,14.2c0,30.5,17.7,50.7,41.7,50.7c15.5,0,27-5.2,36.2-21.5l1.9,1.1c-12.5,24-28.9,37.9-52.8,37.9
		C552.8,415,529.4,389.4,529.4,355.9z M608.1,329.7c0-16.9-4.6-35.4-20.2-35.4c-13.6,0-25.6,16.3-28.6,35.9L608.1,329.7z"/>
	<path d="M647.3,409.5l4.4-0.3c8.4-0.5,11.4-0.8,11.4-4.1v-77.1c0-16.9-1.9-19.3-11.2-21.5l-6.3-1.4l0.3-1.1l44.4-12l-0.8,43h0.5
		c7.6-27.8,19.1-43.6,36.8-43.6c10.1,0,18.5,7.4,18.5,16.6c0,8.2-6.3,16.1-15.8,16.1c-8.7,0-16.3-6.3-17.4-17.4
		c-9.8,1.9-15.3,13.9-22.1,38.7v59.9c0,2.2,1.9,3.3,14.2,3.8l7.1,0.3l0.8,1.6h-65.6L647.3,409.5z"/>
</g>
</svg>
