<svg xmlns="http://www.w3.org/2000/svg" xmlns:xlink="http://www.w3.org/1999/xlink" viewBox="0 0 639.87 144.07"><defs><style>.cls-1{fill:url(#linear-gradient);}.cls-2{fill:url(#linear-gradient-2);}.cls-3{fill:url(#linear-gradient-3);}.cls-4{fill:url(#linear-gradient-4);}.cls-5{fill:url(#linear-gradient-5);}.cls-6{fill:url(#linear-gradient-6);}.cls-7{fill:url(#linear-gradient-7);}.cls-8{fill:url(#linear-gradient-8);}.cls-9{fill:url(#linear-gradient-9);}.cls-10{fill:url(#linear-gradient-10);}.cls-11{fill:url(#linear-gradient-11);}.cls-12{fill:url(#linear-gradient-12);}.cls-13{fill:url(#linear-gradient-13);}.cls-14{fill:url(#linear-gradient-14);}.cls-15{fill:url(#linear-gradient-15);}.cls-16{fill:url(#linear-gradient-16);}.cls-17{fill:url(#linear-gradient-17);}.cls-18{fill:url(#linear-gradient-18);}.cls-19{fill:url(#linear-gradient-19);}.cls-20{fill:url(#linear-gradient-20);}.cls-21{fill:url(#linear-gradient-21);}.cls-22{fill:url(#linear-gradient-22);}.cls-23{fill:url(#linear-gradient-23);}.cls-24{fill:url(#linear-gradient-24);}.cls-25{fill:url(#linear-gradient-25);}.cls-26{fill:url(#linear-gradient-26);}.cls-27{fill:url(#linear-gradient-27);}.cls-28{fill:url(#linear-gradient-28);}.cls-29{fill:url(#linear-gradient-29);}.cls-30{fill:url(#linear-gradient-30);}.cls-31{fill:url(#linear-gradient-31);}.cls-32{fill:url(#linear-gradient-32);}.cls-33{fill:url(#linear-gradient-33);}.cls-34{fill:url(#linear-gradient-34);}.cls-35{fill:url(#linear-gradient-35);}.cls-36{fill:url(#linear-gradient-36);}.cls-37{fill:url(#linear-gradient-37);}.cls-38{fill:url(#linear-gradient-38);}.cls-39{fill:url(#linear-gradient-39);}.cls-40{fill:url(#linear-gradient-40);}.cls-41{fill:url(#linear-gradient-41);}.cls-42{fill:url(#linear-gradient-42);}.cls-43{fill:url(#linear-gradient-43);}.cls-44{fill:url(#linear-gradient-44);}.cls-45{fill:url(#linear-gradient-45);}.cls-46{fill:url(#linear-gradient-46);}.cls-47{fill:url(#linear-gradient-47);}.cls-48{fill:url(#linear-gradient-48);}.cls-49{fill:url(#linear-gradient-49);}.cls-50{fill:url(#linear-gradient-50);}.cls-51{fill:url(#linear-gradient-51);}.cls-52{fill:url(#linear-gradient-52);}.cls-53{fill:url(#linear-gradient-53);}.cls-54{fill:url(#linear-gradient-54);}.cls-55{fill:url(#linear-gradient-55);}.cls-56{fill:url(#linear-gradient-56);}.cls-57{fill:url(#linear-gradient-57);}.cls-58{fill:url(#linear-gradient-58);}.cls-59{fill:url(#linear-gradient-59);}.cls-60{fill:url(#linear-gradient-60);}.cls-61{fill:url(#linear-gradient-61);}.cls-62{fill:url(#linear-gradient-62);}.cls-63{fill:url(#linear-gradient-63);}.cls-64{fill:url(#linear-gradient-64);}.cls-65{fill:url(#linear-gradient-65);}.cls-66{fill:url(#linear-gradient-66);}.cls-67{fill:url(#linear-gradient-67);}.cls-68{fill:url(#linear-gradient-68);}.cls-69{fill:url(#linear-gradient-69);}.cls-70{fill:url(#linear-gradient-70);}.cls-71{fill:url(#linear-gradient-71);}.cls-72{fill:url(#linear-gradient-72);}.cls-73{fill:url(#linear-gradient-73);}.cls-74{fill:url(#linear-gradient-74);}.cls-75{fill:url(#linear-gradient-75);}.cls-76{fill:url(#linear-gradient-76);}.cls-77{fill:url(#linear-gradient-77);}.cls-78{fill:url(#linear-gradient-78);}.cls-79{fill:url(#linear-gradient-79);}.cls-80{fill:url(#linear-gradient-80);}.cls-81{fill:url(#linear-gradient-81);}.cls-82{fill:url(#linear-gradient-82);}.cls-83{fill:url(#linear-gradient-83);}.cls-84{fill:url(#linear-gradient-84);}.cls-85{fill:url(#linear-gradient-85);}.cls-86{fill:url(#linear-gradient-86);}.cls-87{fill:url(#linear-gradient-87);}.cls-88{fill:url(#linear-gradient-88);}.cls-89{fill:url(#linear-gradient-89);}.cls-90{fill:url(#linear-gradient-90);}.cls-91{fill:url(#linear-gradient-91);}.cls-92{fill:url(#linear-gradient-92);}.cls-93{fill:url(#linear-gradient-93);}.cls-94{fill:url(#linear-gradient-94);}.cls-95{fill:url(#linear-gradient-95);}.cls-96{fill:url(#linear-gradient-96);}.cls-97{fill:url(#linear-gradient-97);}.cls-98{fill:url(#linear-gradient-98);}.cls-99{fill:#0c072d;}</style><linearGradient id="linear-gradient" x1="57.51" y1="7.44" x2="157.95" y2="121.43" gradientUnits="userSpaceOnUse"><stop offset="0" stop-color="#ffd6ad"/><stop offset="1" stop-color="#fb0064"/></linearGradient><linearGradient id="linear-gradient-2" x1="55.69" y1="9.04" x2="156.13" y2="123.04" xlink:href="#linear-gradient"/><linearGradient id="linear-gradient-3" x1="53.74" y1="10.76" x2="154.19" y2="124.75" xlink:href="#linear-gradient"/><linearGradient id="linear-gradient-4" x1="51.66" y1="12.59" x2="152.11" y2="126.58" xlink:href="#linear-gradient"/><linearGradient id="linear-gradient-5" x1="49.44" y1="14.55" x2="149.89" y2="128.54" xlink:href="#linear-gradient"/><linearGradient id="linear-gradient-6" x1="47.08" y1="16.63" x2="147.53" y2="130.62" xlink:href="#linear-gradient"/><linearGradient id="linear-gradient-7" x1="44.58" y1="18.83" x2="145.03" y2="132.82" xlink:href="#linear-gradient"/><linearGradient id="linear-gradient-8" x1="41.95" y1="21.15" x2="142.39" y2="135.14" xlink:href="#linear-gradient"/><linearGradient id="linear-gradient-9" x1="39.19" y1="23.59" x2="139.63" y2="137.58" xlink:href="#linear-gradient"/><linearGradient id="linear-gradient-10" x1="36.31" y1="26.12" x2="136.75" y2="140.11" xlink:href="#linear-gradient"/><linearGradient id="linear-gradient-11" x1="32.65" y1="29.35" x2="133.09" y2="143.34" xlink:href="#linear-gradient"/><linearGradient id="linear-gradient-12" x1="29.53" y1="32.1" x2="129.97" y2="146.09" xlink:href="#linear-gradient"/><linearGradient id="linear-gradient-13" x1="26.39" y1="34.86" x2="126.84" y2="148.85" xlink:href="#linear-gradient"/><linearGradient id="linear-gradient-14" x1="23.28" y1="37.6" x2="123.73" y2="151.59" xlink:href="#linear-gradient"/><linearGradient id="linear-gradient-15" x1="20.23" y1="40.29" x2="120.68" y2="154.28" xlink:href="#linear-gradient"/><linearGradient id="linear-gradient-16" x1="17.28" y1="42.89" x2="117.72" y2="156.88" xlink:href="#linear-gradient"/><linearGradient id="linear-gradient-17" x1="14.46" y1="45.37" x2="114.91" y2="159.36" xlink:href="#linear-gradient"/><linearGradient id="linear-gradient-18" x1="11.84" y1="47.68" x2="112.28" y2="161.68" xlink:href="#linear-gradient"/><linearGradient id="linear-gradient-19" x1="9.37" y1="49.86" x2="109.81" y2="163.85" xlink:href="#linear-gradient"/><linearGradient id="linear-gradient-20" x1="7.08" y1="51.88" x2="107.52" y2="165.87" xlink:href="#linear-gradient"/><linearGradient id="linear-gradient-21" x1="4.95" y1="53.75" x2="105.4" y2="167.74" xlink:href="#linear-gradient"/><linearGradient id="linear-gradient-22" x1="3.01" y1="55.46" x2="103.46" y2="169.45" xlink:href="#linear-gradient"/><linearGradient id="linear-gradient-23" x1="1.27" y1="57" x2="101.71" y2="170.99" xlink:href="#linear-gradient"/><linearGradient id="linear-gradient-24" x1="-0.28" y1="58.36" x2="100.17" y2="172.35" xlink:href="#linear-gradient"/><linearGradient id="linear-gradient-25" x1="-1.61" y1="59.53" x2="98.83" y2="173.52" xlink:href="#linear-gradient"/><linearGradient id="linear-gradient-26" x1="-2.72" y1="60.51" x2="97.72" y2="174.5" xlink:href="#linear-gradient"/><linearGradient id="linear-gradient-27" x1="-3.61" y1="61.29" x2="96.84" y2="175.28" xlink:href="#linear-gradient"/><linearGradient id="linear-gradient-28" x1="-4.26" y1="61.87" x2="96.18" y2="175.86" xlink:href="#linear-gradient"/><linearGradient id="linear-gradient-29" x1="-4.7" y1="62.26" x2="95.74" y2="176.25" xlink:href="#linear-gradient"/><linearGradient id="linear-gradient-30" x1="-4.99" y1="62.51" x2="95.46" y2="176.5" xlink:href="#linear-gradient"/><linearGradient id="linear-gradient-31" x1="-5.02" y1="62.54" x2="95.43" y2="176.53" xlink:href="#linear-gradient"/><linearGradient id="linear-gradient-32" x1="-4.78" y1="62.33" x2="95.66" y2="176.32" xlink:href="#linear-gradient"/><linearGradient id="linear-gradient-33" x1="-4.28" y1="61.88" x2="96.17" y2="175.88" xlink:href="#linear-gradient"/><linearGradient id="linear-gradient-34" x1="-3.49" y1="61.19" x2="96.95" y2="175.18" xlink:href="#linear-gradient"/><linearGradient id="linear-gradient-35" x1="-2.37" y1="60.2" x2="98.07" y2="174.2" xlink:href="#linear-gradient"/><linearGradient id="linear-gradient-36" x1="-0.92" y1="58.93" x2="99.52" y2="172.92" xlink:href="#linear-gradient"/><linearGradient id="linear-gradient-37" x1="0.8" y1="57.41" x2="101.24" y2="171.4" xlink:href="#linear-gradient"/><linearGradient id="linear-gradient-38" x1="2.9" y1="55.56" x2="103.34" y2="169.55" xlink:href="#linear-gradient"/><linearGradient id="linear-gradient-39" x1="5.32" y1="53.43" x2="105.76" y2="167.42" xlink:href="#linear-gradient"/><linearGradient id="linear-gradient-40" x1="8.06" y1="51.01" x2="108.51" y2="165" xlink:href="#linear-gradient"/><linearGradient id="linear-gradient-41" x1="11.13" y1="48.31" x2="111.57" y2="162.3" xlink:href="#linear-gradient"/><linearGradient id="linear-gradient-42" x1="14.49" y1="45.34" x2="114.94" y2="159.34" xlink:href="#linear-gradient"/><linearGradient id="linear-gradient-43" x1="18.14" y1="42.13" x2="118.59" y2="156.12" xlink:href="#linear-gradient"/><linearGradient id="linear-gradient-44" x1="22.06" y1="38.68" x2="122.5" y2="152.67" xlink:href="#linear-gradient"/><linearGradient id="linear-gradient-45" x1="26.2" y1="35.03" x2="126.65" y2="149.02" xlink:href="#linear-gradient"/><linearGradient id="linear-gradient-46" x1="30.54" y1="31.2" x2="130.98" y2="145.2" xlink:href="#linear-gradient"/><linearGradient id="linear-gradient-47" x1="35.15" y1="27.15" x2="135.59" y2="141.14" xlink:href="#linear-gradient"/><linearGradient id="linear-gradient-48" x1="39.67" y1="23.16" x2="140.11" y2="137.15" xlink:href="#linear-gradient"/><linearGradient id="linear-gradient-49" x1="44.24" y1="19.13" x2="144.69" y2="133.12" xlink:href="#linear-gradient"/><linearGradient id="linear-gradient-50" x1="48.82" y1="15.1" x2="149.26" y2="129.09" xlink:href="#linear-gradient"/><linearGradient id="linear-gradient-51" x1="53.33" y1="11.12" x2="153.77" y2="125.12" xlink:href="#linear-gradient"/><linearGradient id="linear-gradient-52" x1="57.72" y1="7.26" x2="158.16" y2="121.25" xlink:href="#linear-gradient"/><linearGradient id="linear-gradient-53" x1="142.45" y1="97.19" x2="45.39" y2="5.03" gradientUnits="userSpaceOnUse"><stop offset="0" stop-color="#7033c6"/><stop offset="1" stop-color="#fb0064"/></linearGradient><linearGradient id="linear-gradient-54" x1="141.39" y1="98.3" x2="44.33" y2="6.15" xlink:href="#linear-gradient-53"/><linearGradient id="linear-gradient-55" x1="140.01" y1="99.75" x2="42.95" y2="7.6" xlink:href="#linear-gradient-53"/><linearGradient id="linear-gradient-56" x1="138.47" y1="101.38" x2="41.41" y2="9.23" xlink:href="#linear-gradient-53"/><linearGradient id="linear-gradient-57" x1="88.46" y1="154.05" x2="-8.6" y2="61.9" xlink:href="#linear-gradient-53"/><linearGradient id="linear-gradient-58" x1="86.35" y1="156.27" x2="-10.7" y2="64.11" xlink:href="#linear-gradient-53"/><linearGradient id="linear-gradient-59" x1="101.03" y1="140.81" x2="3.97" y2="48.66" xlink:href="#linear-gradient-53"/><linearGradient id="linear-gradient-60" x1="102.11" y1="139.67" x2="5.05" y2="47.52" xlink:href="#linear-gradient-53"/><linearGradient id="linear-gradient-61" x1="103.51" y1="138.2" x2="6.45" y2="46.05" xlink:href="#linear-gradient-53"/><linearGradient id="linear-gradient-62" x1="105.25" y1="136.36" x2="8.2" y2="44.21" xlink:href="#linear-gradient-53"/><linearGradient id="linear-gradient-63" x1="107.35" y1="134.15" x2="10.3" y2="42" xlink:href="#linear-gradient-53"/><linearGradient id="linear-gradient-64" x1="109.45" y1="131.94" x2="12.4" y2="39.78" xlink:href="#linear-gradient-53"/><linearGradient id="linear-gradient-65" x1="149.11" y1="90.16" x2="52.06" y2="-1.99" xlink:href="#linear-gradient-53"/><linearGradient id="linear-gradient-66" x1="146.91" y1="92.49" x2="49.85" y2="0.33" xlink:href="#linear-gradient-53"/><linearGradient id="linear-gradient-67" x1="144.43" y1="95.1" x2="47.38" y2="2.94" xlink:href="#linear-gradient-53"/><linearGradient id="linear-gradient-68" x1="141.68" y1="97.99" x2="44.62" y2="5.84" xlink:href="#linear-gradient-53"/><linearGradient id="linear-gradient-69" x1="138.67" y1="101.17" x2="41.61" y2="9.01" xlink:href="#linear-gradient-53"/><linearGradient id="linear-gradient-70" x1="135.41" y1="104.6" x2="38.35" y2="12.45" xlink:href="#linear-gradient-53"/><linearGradient id="linear-gradient-71" x1="131.92" y1="108.28" x2="34.86" y2="16.13" xlink:href="#linear-gradient-53"/><linearGradient id="linear-gradient-72" x1="128.22" y1="112.17" x2="31.16" y2="20.02" xlink:href="#linear-gradient-53"/><linearGradient id="linear-gradient-73" x1="124.35" y1="116.25" x2="27.29" y2="24.1" xlink:href="#linear-gradient-53"/><linearGradient id="linear-gradient-74" x1="120.49" y1="120.31" x2="23.43" y2="28.16" xlink:href="#linear-gradient-53"/><linearGradient id="linear-gradient-75" x1="116.36" y1="124.67" x2="19.3" y2="32.52" xlink:href="#linear-gradient-53"/><linearGradient id="linear-gradient-76" x1="112.17" y1="129.08" x2="15.11" y2="36.93" xlink:href="#linear-gradient-53"/><linearGradient id="linear-gradient-77" x1="107.98" y1="133.49" x2="10.92" y2="41.34" xlink:href="#linear-gradient-53"/><linearGradient id="linear-gradient-78" x1="103.84" y1="137.85" x2="6.78" y2="45.7" xlink:href="#linear-gradient-53"/><linearGradient id="linear-gradient-79" x1="99.8" y1="142.1" x2="2.75" y2="49.95" xlink:href="#linear-gradient-53"/><linearGradient id="linear-gradient-80" x1="95.93" y1="146.18" x2="-1.13" y2="54.03" xlink:href="#linear-gradient-53"/><linearGradient id="linear-gradient-81" x1="92.26" y1="150.04" x2="-4.8" y2="57.89" xlink:href="#linear-gradient-53"/><linearGradient id="linear-gradient-82" x1="88.86" y1="153.63" x2="-8.2" y2="61.48" xlink:href="#linear-gradient-53"/><linearGradient id="linear-gradient-83" x1="101.68" y1="140.12" x2="4.62" y2="47.97" xlink:href="#linear-gradient-53"/><linearGradient id="linear-gradient-84" x1="103.56" y1="138.14" x2="6.5" y2="45.99" xlink:href="#linear-gradient-53"/><linearGradient id="linear-gradient-85" x1="105.56" y1="136.04" x2="8.5" y2="43.89" xlink:href="#linear-gradient-53"/><linearGradient id="linear-gradient-86" x1="107.67" y1="133.82" x2="10.61" y2="41.66" xlink:href="#linear-gradient-53"/><linearGradient id="linear-gradient-87" x1="109.9" y1="131.46" x2="12.85" y2="39.31" xlink:href="#linear-gradient-53"/><linearGradient id="linear-gradient-88" x1="112.25" y1="128.99" x2="15.2" y2="36.83" xlink:href="#linear-gradient-53"/><linearGradient id="linear-gradient-89" x1="114.72" y1="126.39" x2="17.66" y2="34.24" xlink:href="#linear-gradient-53"/><linearGradient id="linear-gradient-90" x1="143.33" y1="96.26" x2="46.27" y2="4.11" xlink:href="#linear-gradient-53"/><linearGradient id="linear-gradient-91" x1="154.69" y1="84.29" x2="57.63" y2="-7.86" xlink:href="#linear-gradient-53"/><linearGradient id="linear-gradient-92" x1="156.82" y1="82.05" x2="59.76" y2="-10.1" xlink:href="#linear-gradient-53"/><linearGradient id="linear-gradient-93" x1="156.53" y1="82.36" x2="59.47" y2="-9.8" xlink:href="#linear-gradient-53"/><linearGradient id="linear-gradient-94" x1="155.99" y1="82.92" x2="58.93" y2="-9.23" xlink:href="#linear-gradient-53"/><linearGradient id="linear-gradient-95" x1="155.2" y1="83.76" x2="58.14" y2="-8.39" xlink:href="#linear-gradient-53"/><linearGradient id="linear-gradient-96" x1="154.08" y1="84.93" x2="57.03" y2="-7.22" xlink:href="#linear-gradient-53"/><linearGradient id="linear-gradient-97" x1="152.7" y1="86.39" x2="55.64" y2="-5.76" xlink:href="#linear-gradient-53"/><linearGradient id="linear-gradient-98" x1="151.04" y1="88.13" x2="53.98" y2="-4.02" xlink:href="#linear-gradient-53"/></defs><g id="Layer_2" data-name="Layer 2"><g id="artwork"><path class="cls-1" d="M113.46,73l3,.07q-.57-1.08-1.2-2.13h-.69C114.22,71.64,113.85,72.33,113.46,73Z"/><path class="cls-2" d="M118.37,77.16c-.32-.79-.66-1.57-1-2.34l-4.79-.3c-.4.62-.81,1.24-1.23,1.85Z"/><path class="cls-3" d="M120,81.6c-.26-.86-.54-1.71-.84-2.54l-8.78-1.33c-.42.57-.85,1.12-1.3,1.67Z"/><path class="cls-4" d="M106.66,82.1l14.46,4.26c-.06-.3-.11-.6-.17-.9-.13-.61-.28-1.22-.43-1.82l-12.52-3C107.56,81.12,107.12,81.61,106.66,82.1Z"/><path class="cls-5" d="M104.22,84.49l17.57,6.89c-.08-1-.18-1.91-.31-2.86L105.6,83.18C105.15,83.63,104.69,84.06,104.22,84.49Z"/><path class="cls-6" d="M101.76,86.6l20.18,10c0-.41,0-.83,0-1.25,0-.57,0-1.15,0-1.72l-18.78-8.2C102.69,85.84,102.23,86.23,101.76,86.6Z"/><path class="cls-7" d="M99.3,88.46,121.51,102c.14-1,.24-2,.32-3L100.69,87.44C100.23,87.79,99.77,88.13,99.3,88.46Z"/><path class="cls-8" d="M96.85,90.07l23.59,17.4c.26-1,.49-2,.68-3.07L98.23,89.19Z"/><path class="cls-9" d="M94.43,91.48l24.28,21.41c.39-1,.74-2,1.06-3l-24-19.14C95.34,91,94.89,91.23,94.43,91.48Z"/><path class="cls-10" d="M92,92.68l24.27,25.49c.52-1,1-2,1.44-3L93.38,92C92.93,92.25,92.49,92.47,92,92.68Z"/><path class="cls-11" d="M89.68,93.72l23.54,29.5c.63-.92,1.24-1.85,1.81-2.81L91,93.16Z"/><path class="cls-12" d="M87.35,94.6l22.13,33.32c.76-.84,1.49-1.71,2.18-2.6l-23-31.2C88.22,94.29,87.79,94.44,87.35,94.6Z"/><path class="cls-13" d="M85.06,95.34l20.08,36.84q1.31-1.12,2.52-2.34L86.34,94.94Z"/><path class="cls-14" d="M82.79,95.94l17.46,40c1-.64,1.9-1.32,2.82-2l-19-38.27C83.64,95.73,83.22,95.83,82.79,95.94Z"/><path class="cls-15" d="M80.55,96.42,94.88,139c1.05-.52,2.07-1.07,3.08-1.66L81.81,96.17Z"/><path class="cls-16" d="M78.33,96.8l10.79,44.62c1.11-.38,2.21-.81,3.28-1.27L79.58,96.6Z"/><path class="cls-17" d="M76.12,97.06l7,46c1.15-.23,2.3-.51,3.43-.83L77.36,96.92C77,97,76.54,97,76.12,97.06Z"/><path class="cls-18" d="M73.92,97.23l2.93,46.63,1.75-.09c.59-.06,1.18-.14,1.77-.23L75.16,97.15Z"/><path class="cls-19" d="M72.87,144.06,74.1,144,73,97.27c-.41,0-.82,0-1.24,0l-1.15,46.75,1.52,0Z"/><path class="cls-20" d="M69.5,97.27l-5.21,46.38c1.17.13,2.34.22,3.53.29l2.93-46.65Z"/><path class="cls-21" d="M67.26,97.13,58.07,142.7c1.15.23,2.31.43,3.49.6l7-46.08Z"/><path class="cls-22" d="M65,96.89,52,141.22c1.13.33,2.27.63,3.43.9L66.28,97C65.85,97,65.42,97,65,96.89Z"/><path class="cls-23" d="M62.71,96.54,46,139.2c1.09.43,2.21.83,3.33,1.2L64,96.75Z"/><path class="cls-24" d="M60.38,96.06l-20.16,40.6c1.06.52,2.13,1,3.22,1.49l18.25-41.8Z"/><path class="cls-25" d="M58,95.45,34.7,133.63c1,.61,2,1.2,3.07,1.77L59.35,95.81C58.9,95.7,58.45,95.58,58,95.45Z"/><path class="cls-26" d="M55.58,94.7,29.46,130.12c1,.7,1.93,1.38,2.91,2L57,95.15Z"/><path class="cls-27" d="M53.12,93.78l-28.57,32.4c.89.78,1.8,1.53,2.72,2.27L54.51,94.32C54.05,94.15,53.58,94,53.12,93.78Z"/><path class="cls-28" d="M50.6,92.68,20,121.82c.82.85,1.65,1.69,2.51,2.5L52,93.32C51.55,93.12,51.07,92.9,50.6,92.68Z"/><path class="cls-29" d="M48,91.38l-32.2,25.69c.74.93,1.51,1.83,2.29,2.72L49.49,92.14Z"/><path class="cls-30" d="M45.44,89.85,12.11,112c.66,1,1.34,2,2.05,2.9L46.9,90.74C46.41,90.46,45.92,90.16,45.44,89.85Z"/><path class="cls-31" d="M42.81,88.08l-34,18.52c.57,1,1.16,2.06,1.78,3.07L44.29,89.11C43.79,88.78,43.3,88.43,42.81,88.08Z"/><path class="cls-32" d="M40.18,86,6.05,100.94c.48,1.08,1,2.16,1.51,3.21l34.1-16.93C41.16,86.84,40.67,86.44,40.18,86Z"/><path class="cls-33" d="M37.56,83.69,3.77,95.06c.38,1.12.79,2.23,1.22,3.33L39,85.05C38.53,84.6,38,84.15,37.56,83.69Z"/><path class="cls-34" d="M35,81,2,89c.28,1.16.59,2.3.92,3.43l33.49-9.86C35.94,82.06,35.46,81.55,35,81Z"/><path class="cls-35" d="M32.51,78,.81,82.8c.17,1.17.38,2.34.61,3.5l32.47-6.55Q33.19,78.9,32.51,78Z"/><path class="cls-36" d="M30.17,74.64l-30,1.88q.11,1.78.3,3.54l31-3.48C31,75.94,30.59,75.3,30.17,74.64Z"/><path class="cls-37" d="M27.88,70.9,0,70.21C0,70.8,0,71.4,0,72s0,1.19,0,1.78l29-.72C28.64,72.35,28.25,71.63,27.88,70.9Z"/><path class="cls-38" d="M.45,63.92q-.19,1.76-.3,3.54L27,69.15c-.35-.78-.69-1.56-1-2.36Z"/><path class="cls-39" d="M24.51,62.34,1.42,57.68C1.19,58.84,1,60,.81,61.18l24.51,3.71Q24.89,63.63,24.51,62.34Z"/><path class="cls-40" d="M23.41,57.58l-20.47-6C2.61,52.69,2.3,53.83,2,55L24,60.3C23.76,59.4,23.57,58.5,23.41,57.58Z"/><path class="cls-41" d="M22.77,52.56,5,45.59c-.43,1.1-.84,2.21-1.22,3.34l19.3,6.49C22.94,54.47,22.84,53.52,22.77,52.56Z"/><path class="cls-42" d="M22.63,48.89v-.28c0-.43,0-.86,0-1.29L7.56,39.83C7,40.88,6.53,42,6.05,43l16.6,7.25C22.64,49.83,22.63,49.36,22.63,48.89Z"/><path class="cls-43" d="M23.09,41.92,10.62,34.31c-.62,1-1.21,2-1.78,3.07L22.76,45C22.84,43.94,23,42.93,23.09,41.92Z"/><path class="cls-44" d="M24.16,36.46l-10-7.37C13.45,30,12.77,31,12.11,32l11.36,7.55C23.67,38.5,23.9,37.47,24.16,36.46Z"/><path class="cls-45" d="M25.9,31l-7.77-6.85c-.78.89-1.55,1.79-2.29,2.72l9,7.17C25.16,33.05,25.51,32,25.9,31Z"/><path class="cls-46" d="M28.32,25.76l-5.81-6.1c-.85.81-1.69,1.65-2.51,2.5l6.87,6.55C27.32,27.7,27.8,26.72,28.32,25.76Z"/><path class="cls-47" d="M31.41,20.71l-4.14-5.18c-.92.73-1.83,1.49-2.72,2.27l5,5.71C30.16,22.56,30.77,21.62,31.41,20.71Z"/><path class="cls-48" d="M35.15,16l-2.78-4.18c-1,.65-1.95,1.33-2.91,2L33,18.61C33.66,17.72,34.39,16.85,35.15,16Z"/><path class="cls-49" d="M39.5,11.75,37.78,8.59c-1.05.56-2.07,1.15-3.08,1.76L37,14.09Q38.2,12.88,39.5,11.75Z"/><path class="cls-50" d="M44.4,8l-1-2.2c-1.09.47-2.16,1-3.22,1.49l1.36,2.74C42.49,9.35,43.44,8.67,44.4,8Z"/><path class="cls-51" d="M49.78,4.93l-.46-1.35C48.2,4,47.09,4.36,46,4.78L46.7,6.6C47.7,6,48.73,5.45,49.78,4.93Z"/><path class="cls-52" d="M55.54,2.54l-.16-.68c-1.16.28-2.3.58-3.43.9l.3,1C53.33,3.34,54.43,2.92,55.54,2.54Z"/><path class="cls-53" d="M116.47,73.07h.09c-.37-.73-.77-1.44-1.18-2.15h-.11Q115.9,72,116.47,73.07Z"/><path class="cls-54" d="M117.34,74.82c.37.77.71,1.55,1,2.34h.07c-.32-.8-.66-1.58-1-2.35Z"/><path class="cls-55" d="M119.11,79.06c.3.83.58,1.68.84,2.54h0c-.25-.85-.52-1.7-.82-2.53Z"/><path class="cls-56" d="M120.52,83.64c.15.6.3,1.21.43,1.82-.13-.61-.26-1.21-.41-1.81Z"/><path class="cls-57" d="M76.85,143.91v0c.59,0,1.17-.09,1.75-.16C78,143.83,77.43,143.87,76.85,143.91Z"/><path class="cls-58" d="M74.1,144.06v0l-1.23,0H74.1Z"/><path class="cls-59" d="M28,70.9h-.14c.37.73.76,1.45,1.16,2.15h.17C28.8,72.34,28.4,71.63,28,70.9Z"/><path class="cls-60" d="M26,66.79c.32.8.66,1.58,1,2.36h.14c-.36-.77-.7-1.55-1-2.35Z"/><path class="cls-61" d="M24.51,62.34q.38,1.29.81,2.55h.1c-.29-.83-.56-1.68-.82-2.54Z"/><path class="cls-62" d="M23.41,57.58c.16.92.35,1.82.57,2.72h.07c-.23-.89-.42-1.8-.59-2.71Z"/><path class="cls-63" d="M22.77,52.56c.07,1,.17,1.91.3,2.86h0c-.13-1-.23-1.9-.31-2.86Z"/><path class="cls-64" d="M22.63,48.89c0,.47,0,.94,0,1.4h0q0-.78,0-1.56Z"/><path class="cls-65" d="M144.66,72.65c0-.16,0-.31,0-.46V72h0l-29-.71c.38.66.75,1.34,1.1,2Z"/><path class="cls-66" d="M117.68,75.33c.3.66.59,1.32.87,2L144.34,79l.06-.63Z"/><path class="cls-67" d="M143.59,84.58l-24.16-4.87c.22.64.42,1.29.62,2l23.42,3.54Z"/><path class="cls-68" d="M142.23,90.74l-21.45-6.32c.14.62.27,1.24.39,1.87l20.89,5C142.12,91.14,142.17,90.94,142.23,90.74Z"/><path class="cls-69" d="M140.33,96.75l-18.67-7.32c.08.58.14,1.17.19,1.76l18.26,6.15C140.19,97.14,140.26,97,140.33,96.75Z"/><path class="cls-70" d="M137.92,102.57,122,94.68c0,.26,0,.52,0,.78s0,.57,0,.86l15.62,6.82Z"/><path class="cls-71" d="M135,108.15l-13.18-8h0c0,.5-.1,1-.16,1.5h0l13,7.1Z"/><path class="cls-72" d="M131.61,113.45,121,105.63l0,0-.3,1.34,0,0,10.54,7Z"/><path class="cls-73" d="M127.78,118.44l-8.27-7.28,0,0-.42,1.18,0,0,8.27,6.6C127.5,118.76,127.64,118.6,127.78,118.44Z"/><path class="cls-74" d="M123.53,123.08l-6.2-6.51-.06-.07c-.16.34-.33.68-.5,1l.06.06,6.24,5.94Z"/><path class="cls-75" d="M118.89,127.32l-4.43-5.55-.07-.09-.57.86.08.09,4.5,5.1Z"/><path class="cls-76" d="M113.9,131.15l-3-4.5-.08-.12-.6.72.08.11,3.06,4.15Z"/><path class="cls-77" d="M106.75,131.11l-.08-.15-.63.58.09.15,1.92,3.15.56-.32Z"/><path class="cls-78" d="M102,135.06l-.08-.18-.64.46.08.17,1.09,2.18.58-.26Z"/><path class="cls-79" d="M96.76,138.39l-.07-.19-.64.35.08.19.51,1.31.6-.22Z"/><path class="cls-80" d="M91.1,141.05l0-.21-.65.24.06.21.17.59.63-.17Z"/><path class="cls-81" d="M85.12,143l0-.23-.64.15,0,.23,0,.07.63-.11Z"/><path class="cls-82" d="M78.92,143.83l-.65.07v0l.65-.06Z"/><path class="cls-83" d="M28.28,71.33c.36.69.75,1.37,1.14,2H30c.37-.72.75-1.42,1.15-2.12Z"/><path class="cls-84" d="M26.42,67.36c.28.68.58,1.35.89,2l4.6.52c.44-.72.9-1.42,1.38-2.11Z"/><path class="cls-85" d="M24.86,63.05c.21.66.42,1.32.65,2L34,66.74c.52-.71,1-1.39,1.6-2.06Z"/><path class="cls-86" d="M36.28,63.89c.58-.68,1.18-1.34,1.8-2l-14.4-3.48c.13.64.27,1.26.42,1.89Z"/><path class="cls-87" d="M23,53.52c.06.59.12,1.19.2,1.78l15.46,6.05c.64-.65,1.3-1.28,2-1.9Z"/><path class="cls-88" d="M41,59.09c.69-.61,1.41-1.22,2.14-1.8L22.71,48.38v.32c0,.44,0,.89,0,1.33Z"/><path class="cls-89" d="M45.65,55.41,23,43.08c-.06.5-.11,1-.15,1.51l20.49,12.5C44.11,56.51,44.88,56,45.65,55.41Z"/><path class="cls-90" d="M48.15,53.79h0c.76-.46,1.54-.91,2.34-1.33l.15-.08c.72-.38,1.45-.74,2.19-1.09l.26-.12c.68-.31,1.36-.6,2.06-.88l.36-.15c.64-.25,1.28-.48,1.93-.71l.45-.16c.6-.2,1.2-.38,1.81-.56l.53-.15L62,48.11l.59-.14c.54-.12,1.09-.24,1.64-.34l.64-.12c.52-.09,1.05-.18,1.58-.25l.67-.09L68.65,47l.69-.06c.51,0,1-.08,1.53-.1l.7,0,1.53,0h.69q.79,0,1.56,0l.68,0c.53,0,1.07.06,1.6.11l.64,0,1.67.2.59.09,1.76.29.54.1c.62.13,1.24.26,1.86.41l.46.11,2,.54.38.11c.71.22,1.42.46,2.12.7l.27.1c.77.28,1.53.57,2.29.89l.15.07c.83.35,1.65.72,2.45,1.12h0c.85.42,1.68.86,2.51,1.33l30.6-27L128,26l-.4-.47-.09.07-32.6,26,28.75-30.2.09-.1-.44-.43-.09.09L93,49.74l26-32.58.09-.11-.47-.4-.1.1L91,48,114.05,13.3l.09-.13-.51-.35-.09.12L88.8,46.49l20-36.6.07-.13-.54-.31-.08.13L86.48,45.15,103.16,7l.06-.15-.56-.26-.07.14L84.06,44,97.34,4.54l.06-.16-.59-.2-.06.15L81.55,43.11,91.33,2.64l0-.16-.6-.16,0,.15L79,42.42,85.18,1.27l0-.17L84.6,1l0,.16L76.33,42,78.94.45V.28L78.33.23l0,.16L73.67,41.72,72.65.16V0H72V.17L71,41.72,66.36.43h0l0-.14-.27,0-.35,0V.49L68.33,42,60.16,1.46l0-.14-.63.15,0,.14L65.7,42.42,54.18,3.28l0-.12-.62.24,0,.13,9.57,39.58L48.51,5.85l0-.11-.63.34,0,.11L60.61,44,43.26,9.08l0-.09-.62.45,0,.09L58.18,45.15,38.5,12.91l0-.07-.62.58,0,.07,18,33L34.3,17.25l0-.05c-.2.24-.4.47-.59.71l0,0L53.68,48l-23-26,0,0-.55.86,0,0L51.63,49.74,27.79,27h0c-.17.34-.33.68-.49,1h0L49.74,51.63,25.54,32.31c-.14.39-.28.79-.41,1.18L48,53.68,24,37.7c-.1.44-.2.89-.29,1.34L45.76,55.33C46.54,54.8,47.34,54.29,48.15,53.79Z"/><path class="cls-91" d="M66.34.27l-.27,0,.27,0Z"/><path class="cls-92" d="M97.45,53.15c.82.47,1.62,1,2.42,1.47l31.89-23.51.09-.07-.36-.51-.09.06Z"/><path class="cls-93" d="M100.14,54.8c.78.51,1.54,1.05,2.28,1.61l32.72-20,.08,0-.31-.53-.09,0Z"/><path class="cls-94" d="M102.85,56.73c.73.55,1.44,1.13,2.13,1.72L138,42l.08,0c-.09-.18-.18-.37-.26-.56l-.08,0Z"/><path class="cls-95" d="M105.56,59c.67.6,1.32,1.2,2,1.83l32.91-12.9.06,0c-.07-.2-.13-.39-.21-.59l-.06,0Z"/><path class="cls-96" d="M108.24,61.5c.6.63,1.19,1.27,1.76,1.92l32.3-9.51,0,0c0-.2-.11-.4-.16-.59h-.05Z"/><path class="cls-97" d="M110.84,64.4q.81,1,1.56,2l31.23-6.3h0c0-.2-.07-.41-.11-.61h0Z"/><path class="cls-98" d="M113.33,67.67q.69,1,1.32,2l29.77-3.34h0c0-.21,0-.42-.05-.62h0Z"/><path class="cls-99" d="M217.82,85.77a23.82,23.82,0,0,1-9,9.51,27,27,0,0,1-26.43,0,23.77,23.77,0,0,1-9-9.51,28.83,28.83,0,0,1-3.22-13.7,28.83,28.83,0,0,1,3.22-13.7,23.9,23.9,0,0,1,9-9.51,27.1,27.1,0,0,1,26.43,0,23.94,23.94,0,0,1,9,9.51A28.83,28.83,0,0,1,221,72.07,28.83,28.83,0,0,1,217.82,85.77Zm-36.76-3.85a16.12,16.12,0,0,0,5.87,6.81,16.61,16.61,0,0,0,17.3,0,16.21,16.21,0,0,0,5.88-6.81,24.23,24.23,0,0,0,0-19.69,16.3,16.3,0,0,0-5.88-6.82,16.61,16.61,0,0,0-17.3,0,16.21,16.21,0,0,0-5.87,6.82,24.13,24.13,0,0,0,0,19.69Z"/><path class="cls-99" d="M239.83,98.28V45.87h7.86L273.22,83V45.87h8.46V98.28h-7.86L248.29,61.14V98.28Z"/><path class="cls-99" d="M302.5,45.87h34.21V53.5h-25.6V68h21.11v7.41H311.11v15.2h26.5v7.64H302.5Z"/><path class="cls-99" d="M355.88,45.79h8.61V67.88h24.33V45.79h8.61V98.28h-8.61V75.52H364.49V98.28h-8.61Z"/><path class="cls-99" d="M463.92,85.77a23.75,23.75,0,0,1-9,9.51,27,27,0,0,1-26.43,0,23.68,23.68,0,0,1-9-9.51,28.71,28.71,0,0,1-3.22-13.7,28.71,28.71,0,0,1,3.22-13.7,23.81,23.81,0,0,1,9-9.51,27.1,27.1,0,0,1,26.43,0,23.88,23.88,0,0,1,9,9.51,28.71,28.71,0,0,1,3.22,13.7A28.71,28.71,0,0,1,463.92,85.77Zm-36.76-3.85A16.07,16.07,0,0,0,433,88.73a16.59,16.59,0,0,0,17.29,0,16.21,16.21,0,0,0,5.88-6.81,22.48,22.48,0,0,0,2.09-9.85,22.47,22.47,0,0,0-2.09-9.84,16.3,16.3,0,0,0-5.88-6.82,16.59,16.59,0,0,0-17.29,0,16.16,16.16,0,0,0-5.88,6.82,24.13,24.13,0,0,0,0,19.69Z"/><path class="cls-99" d="M494.24,45.87v30.4q0,7.41,2.92,11.11t9.06,3.71c4.15,0,7.2-1.24,9.18-3.71s3-6.17,3-11.11V45.87H527V75.82q0,11.22-5.28,17.07t-15.46,5.84q-10.11,0-15.35-5.84t-5.24-17.07V45.87Z"/><path class="cls-99" d="M554,81.21a10.34,10.34,0,0,0,3.78,7.45,13.5,13.5,0,0,0,8.87,2.8,13.23,13.23,0,0,0,7.75-2.06,6.59,6.59,0,0,0,3-5.72,5.48,5.48,0,0,0-1.61-4.16,10.63,10.63,0,0,0-4.38-2.36,75.83,75.83,0,0,0-7.79-1.72,43.77,43.77,0,0,1-8.72-2.36,13.7,13.7,0,0,1-5.91-4.45,12.59,12.59,0,0,1-2.29-7.86,14,14,0,0,1,2.36-8,15.51,15.51,0,0,1,6.59-5.47,25.05,25.05,0,0,1,19.73.15,17.31,17.31,0,0,1,7,5.76,15.73,15.73,0,0,1,2.77,8.39H576.6a9.34,9.34,0,0,0-3.52-6.51,12,12,0,0,0-7.78-2.48,12.17,12.17,0,0,0-7.3,2,6.48,6.48,0,0,0-2.74,5.58,5.26,5.26,0,0,0,1.61,4,10.26,10.26,0,0,0,4.31,2.25q2.7.75,7.71,1.64a43.29,43.29,0,0,1,8.76,2.4,14.46,14.46,0,0,1,6,4.42A12,12,0,0,1,586,82.63a14.51,14.51,0,0,1-2.47,8.31,16.48,16.48,0,0,1-6.89,5.73,23.5,23.5,0,0,1-10,2.06,25.11,25.11,0,0,1-10.93-2.25,17.79,17.79,0,0,1-7.38-6.25,16.68,16.68,0,0,1-2.73-9.17Z"/><path class="cls-99" d="M604.75,45.87H639V53.5H613.36V68h21.12v7.41H613.36v15.2h26.51v7.64H604.75Z"/></g></g></svg>